<?xml version="1.0" encoding="UTF-8" standalone="no"?>
<!-- Created with Inkscape (http://www.inkscape.org/) -->

<svg
   width="110.53819mm"
   height="268.5mm"
   viewBox="0 0 110.53819 268.5"
   version="1.1"
   id="svg23"
   inkscape:version="1.1.1 (1:1.1+202109281949+c3084ef5ed)"
   sodipodi:docname="stirred.svg"
   xmlns:inkscape="http://www.inkscape.org/namespaces/inkscape"
   xmlns:sodipodi="http://sodipodi.sourceforge.net/DTD/sodipodi-0.dtd"
   xmlns="http://www.w3.org/2000/svg"
   xmlns:svg="http://www.w3.org/2000/svg">
  <sodipodi:namedview
     id="namedview25"
     pagecolor="#ffffff"
     bordercolor="#666666"
     borderopacity="1.0"
     inkscape:pageshadow="2"
     inkscape:pageopacity="0.0"
     inkscape:pagecheckerboard="0"
     inkscape:document-units="mm"
     showgrid="true"
     showguides="true"
     inkscape:guide-bbox="true"
     inkscape:zoom="1"
     inkscape:cx="652.5"
     inkscape:cy="520"
     inkscape:window-width="1920"
     inkscape:window-height="1163"
     inkscape:window-x="2560"
     inkscape:window-y="0"
     inkscape:window-maximized="1"
     inkscape:current-layer="layer1"
     fit-margin-top="3"
     fit-margin-left="3"
     fit-margin-right="3"
     fit-margin-bottom="3">
    <inkscape:grid
       type="xygrid"
       id="grid27"
       originx="-37.82419"
       originy="19" />
    <sodipodi:guide
       position="52.175807,4.5000008"
       orientation="0,-1"
       id="guide29" />
    <sodipodi:guide
       position="7.1758085,29.500002"
       orientation="1,0"
       id="guide31" />
    <sodipodi:guide
       position="102.17581,19.500002"
       orientation="1,0"
       id="guide33" />
    <sodipodi:guide
       position="57.175807,229.50001"
       orientation="0,-1"
       id="guide35" />
    <sodipodi:guide
       position="75.175809,22.5"
       orientation="0,-1"
       id="guide1684" />
    <sodipodi:guide
       position="32.175809,38.5"
       orientation="1,0"
       id="guide1686" />
    <sodipodi:guide
       position="77.175809,28.5"
       orientation="1,0"
       id="guide1688" />
    <sodipodi:guide
       position="82.175809,14.500002"
       orientation="0,-1"
       id="guide1690" />
    <sodipodi:guide
       position="29.175809,18.5"
       orientation="0,-1"
       id="guide1828" />
    <sodipodi:guide
       position="88.175809,209.50001"
       orientation="0,-1"
       id="guide4026" />
    <sodipodi:guide
       position="57.175807,74.499999"
       orientation="1,0"
       id="guide3740" />
    <sodipodi:guide
       position="54.175809,70.499999"
       orientation="1,0"
       id="guide4238" />
    <sodipodi:guide
       position="60.175809,69.499999"
       orientation="1,0"
       id="guide4240" />
  </sodipodi:namedview>
  <defs
     id="defs20" />
  <g
     inkscape:label="Lag 1"
     inkscape:groupmode="layer"
     id="layer1"
     transform="translate(-37.82419,19)">
    <path
       style="fill:#000002;fill-opacity:1;stroke:#000000;stroke-width:2;stroke-miterlimit:4;stroke-dasharray:none;stroke-opacity:1;paint-order:fill markers stroke"
       id="path3912"
       sodipodi:type="arc"
       sodipodi:cx="94.98204"
       sodipodi:cy="204.71999"
       sodipodi:rx="13.98204"
       sodipodi:ry="18.348938"
       sodipodi:start="4.8727517"
       sodipodi:end="4.5538034"
       sodipodi:arc-type="arc"
       d="M 97.214641,186.60648 A 13.98204,18.348938 0 0 1 108.91866,206.19778 13.98204,18.348938 0 0 1 94.969616,223.06892 13.98204,18.348938 0 0 1 81.043441,206.16527 13.98204,18.348938 0 0 1 92.773973,186.6013"
       sodipodi:open="true" />
    <path
       style="fill:#000002;fill-opacity:1;stroke:#000000;stroke-width:1.94145;stroke-linecap:butt;stroke-linejoin:miter;stroke-miterlimit:4;stroke-dasharray:none;stroke-opacity:1"
       d="M 91.999997,187.23077 92,-5 h 5.999999 v 192.23077"
       id="path4423" />
    <path
       style="fill:none;fill-opacity:1;stroke:#000000;stroke-width:4.4;stroke-miterlimit:4;stroke-dasharray:none;stroke-opacity:1;paint-order:fill markers stroke"
       id="path5570"
       sodipodi:type="arc"
       sodipodi:cx="93.078491"
       sodipodi:cy="31.827827"
       sodipodi:rx="50.078491"
       sodipodi:ry="13.482671"
       sodipodi:start="5.2593615"
       sodipodi:end="4.4047285"
       sodipodi:open="true"
       sodipodi:arc-type="arc"
       d="M 119.12451,20.312237 A 50.078491,13.482671 0 0 1 140.40082,36.239043 50.078491,13.482671 0 0 1 87.100587,45.214094 50.078491,13.482671 0 0 1 43.221094,33.093363 50.078491,13.482671 0 0 1 77.913232,18.97824" />
    <path
       style="fill:none;fill-opacity:1;stroke:#000000;stroke-width:2.91218;stroke-miterlimit:4;stroke-dasharray:none;stroke-opacity:1;paint-order:fill markers stroke"
       d=""
       id="path6727" />
    <path
       style="fill:none;fill-opacity:1;stroke:#000000;stroke-width:2.91218;stroke-miterlimit:4;stroke-dasharray:none;stroke-opacity:1;paint-order:fill markers stroke"
       d=""
       id="path6766" />
    <path
       style="fill:none;fill-opacity:1;stroke:#000000;stroke-width:2.91218;stroke-miterlimit:4;stroke-dasharray:none;stroke-opacity:1;paint-order:fill markers stroke"
       d=""
       id="path6805" />
    <path
       style="fill:none;fill-opacity:1;stroke:#000000;stroke-width:0.0643507;stroke-miterlimit:4;stroke-dasharray:none;stroke-opacity:1;paint-order:fill markers stroke"
       d="m 94.731177,45.856707 v -1.919965 h 0.263094 0.263094 v 1.919965 1.919962 h -0.263094 -0.263094 z"
       id="path7637" />
    <path
       style="fill:none;fill-opacity:1;stroke:#000000;stroke-width:0.0643507;stroke-miterlimit:4;stroke-dasharray:none;stroke-opacity:1;paint-order:fill markers stroke"
       d="m 94.766256,45.856707 v -1.886908 h 0.228015 0.228015 v 1.886908 1.886908 h -0.228015 -0.228015 z"
       id="path7676" />
    <path
       style="fill:none;fill-opacity:1;stroke:#000000;stroke-width:0.0643507;stroke-miterlimit:4;stroke-dasharray:none;stroke-opacity:1;paint-order:fill markers stroke"
       d="m 94.801337,45.856707 v -1.853854 h 0.192934 0.192934 v 1.853854 1.853853 h -0.192934 -0.192934 z"
       id="path7715" />
    <path
       style="fill:none;fill-opacity:1;stroke:#000000;stroke-width:0.0643507;stroke-miterlimit:4;stroke-dasharray:none;stroke-opacity:1;paint-order:fill markers stroke"
       d="m 94.836415,45.856707 v -1.820799 h 0.157856 0.157856 v 1.820799 1.820798 h -0.157856 -0.157856 z"
       id="path7754" />
    <path
       style="fill:none;fill-opacity:1;stroke:#000000;stroke-width:0.0643507;stroke-miterlimit:4;stroke-dasharray:none;stroke-opacity:1;paint-order:fill markers stroke"
       d="m 94.871494,45.856707 v -1.787744 h 0.122777 0.122777 v 1.787744 1.787741 h -0.122777 -0.122777 z"
       id="path7793" />
    <path
       style="fill:none;fill-opacity:1;stroke:#000000;stroke-width:0.0643507;stroke-miterlimit:4;stroke-dasharray:none;stroke-opacity:1;paint-order:fill markers stroke"
       d="m 94.906572,45.856707 v -1.754686 h 0.0877 0.0877 v 1.754686 1.754686 h -0.0877 -0.0877 z"
       id="path7832" />
    <path
       style="fill:none;fill-opacity:1;stroke:#000000;stroke-width:0.0643507;stroke-miterlimit:4;stroke-dasharray:none;stroke-opacity:1;paint-order:fill markers stroke"
       d="m 94.941653,45.856707 v -1.721632 h 0.05262 0.05262 v 1.721632 1.721632 h -0.05262 -0.05262 z"
       id="path7871" />
    <path
       style="fill:none;fill-opacity:1;stroke:#000000;stroke-width:0.0643507;stroke-miterlimit:4;stroke-dasharray:none;stroke-opacity:1;paint-order:fill markers stroke"
       d="M 91.001097,48.977305 V 47.768031 H 87.85567 84.71024 v -0.939322 -0.939321 h 3.14543 3.145427 V 42.806979 39.72457 h 3.999021 3.999019 v 3.082409 3.082409 h 1.596103 1.5961 v 0.939321 0.939322 h -1.5961 -1.596103 v 1.209274 1.209274 h -3.999019 -3.999021 z m 3.994645,-4.888029 -0.05407,-0.0018 -0.0016,-1.725557 -0.0016,-1.725559 -0.0013,1.728519 -0.0013,1.72852 0.057,-0.0012 0.057,-0.0012 z"
       id="path7910" />
    <path
       style="fill:none;fill-opacity:1;stroke:#000000;stroke-width:0.0643507;stroke-miterlimit:4;stroke-dasharray:none;stroke-opacity:1;paint-order:fill markers stroke"
       d="m 94.976732,45.856707 v -1.688578 h 0.01754 0.01754 v 1.688578 1.688577 h -0.01754 -0.01754 z"
       id="path7912" />
    <path
       style="fill:none;fill-opacity:1;stroke:#000000;stroke-width:0.0643507;stroke-miterlimit:4;stroke-dasharray:none;stroke-opacity:1;paint-order:fill markers stroke"
       d="M 90.971864,48.99108 V 47.795578 H 87.841052 84.71024 v -0.966869 -0.966868 h 3.130812 3.130812 V 42.793204 39.72457 h 4.028254 4.028252 v 3.068634 3.068637 h 1.58148 1.58149 v 0.966868 0.966869 h -1.58149 -1.58148 v 1.195502 1.195499 h -4.028252 -4.028254 z"
       id="path7951" />
    <path
       style="fill:none;fill-opacity:1;stroke:#000000;stroke-width:0.0643507;stroke-miterlimit:4;stroke-dasharray:none;stroke-opacity:1;paint-order:fill markers stroke"
       d="M 90.971864,48.99108 V 47.795578 H 87.841052 84.71024 v -0.966869 -0.966868 h 3.130812 3.130812 V 42.793204 39.72457 h 4.028254 4.028252 v 3.068634 3.068637 h 1.58148 1.58149 v 0.966868 0.966869 h -1.58149 -1.58148 v 1.195502 1.195499 h -4.028252 -4.028254 z"
       id="path7990" />
    <path
       style="fill:#c8c8c8;fill-opacity:1;stroke:#000000;stroke-width:1.02961;stroke-miterlimit:4;stroke-dasharray:none;stroke-opacity:1;paint-order:fill markers stroke"
       d=""
       id="path9273" />
    <path
       style="fill:#000002;fill-opacity:1;stroke:none;stroke-width:0.367487px;stroke-linecap:butt;stroke-linejoin:miter;stroke-opacity:1"
       d="M 106.78597,19.686589 126,30.528928 127.51931,11.707556 Z"
       id="path11149"
       sodipodi:nodetypes="cccc" />
    <g
       id="g15890"
       transform="matrix(1,0,0,0.89398422,0,20.973866)">
      <path
         style="fill:none;stroke:#000000;stroke-width:3;stroke-linecap:square;stroke-linejoin:round;stroke-miterlimit:4;stroke-dasharray:none;stroke-opacity:1"
         d="M 44.999999,50.000009 50,245 h 85 l 5,-195 v 10e-7"
         id="path70"
         sodipodi:nodetypes="ccccc" />
      <path
         style="fill:none;stroke:#000000;stroke-width:3;stroke-linecap:square;stroke-linejoin:round;stroke-miterlimit:4;stroke-dasharray:none;stroke-opacity:1"
         d="m 50,227 c 0.01615,5.3098 6.607671,8.00633 19.999999,8 H 115 c 14.05961,0.0633 19.79322,-2.94788 20,-8 v 0"
         id="path3229"
         sodipodi:nodetypes="ccccc" />
      <path
         style="fill:none;stroke:#000000;stroke-width:3;stroke-linecap:butt;stroke-linejoin:miter;stroke-miterlimit:4;stroke-dasharray:none;stroke-opacity:1"
         d="M 44.999999,50 H 140"
         id="path15399" />
    </g>
  </g>
</svg>
