<?xml version="1.0" encoding="UTF-8" standalone="no"?>
<!-- Created with Inkscape (http://www.inkscape.org/) -->

<svg
   width="210mm"
   height="297mm"
   viewBox="0 0 210 297"
   version="1.1"
   id="svg23"
   inkscape:version="1.1 (1:1.1+202105261517+ce6663b3b7)"
   sodipodi:docname="omrøring.svg"
   xmlns:inkscape="http://www.inkscape.org/namespaces/inkscape"
   xmlns:sodipodi="http://sodipodi.sourceforge.net/DTD/sodipodi-0.dtd"
   xmlns="http://www.w3.org/2000/svg"
   xmlns:svg="http://www.w3.org/2000/svg">
  <sodipodi:namedview
     id="namedview25"
     pagecolor="#ffffff"
     bordercolor="#666666"
     borderopacity="1.0"
     inkscape:pageshadow="2"
     inkscape:pageopacity="0.0"
     inkscape:pagecheckerboard="0"
     inkscape:document-units="mm"
     showgrid="true"
     showguides="true"
     inkscape:guide-bbox="true"
     inkscape:zoom="0.70710678"
     inkscape:cx="-334.46151"
     inkscape:cy="74.246212"
     inkscape:window-width="2488"
     inkscape:window-height="1376"
     inkscape:window-x="72"
     inkscape:window-y="27"
     inkscape:window-maximized="1"
     inkscape:current-layer="layer1">
    <inkscape:grid
       type="xygrid"
       id="grid27" />
    <sodipodi:guide
       position="89.999998,52.000001"
       orientation="0,-1"
       id="guide29" />
    <sodipodi:guide
       position="44.999999,77.000002"
       orientation="1,0"
       id="guide31" />
    <sodipodi:guide
       position="140,67.000002"
       orientation="1,0"
       id="guide33" />
    <sodipodi:guide
       position="94.999998,277.00001"
       orientation="0,-1"
       id="guide35" />
    <sodipodi:guide
       position="113,70"
       orientation="0,-1"
       id="guide1684" />
    <sodipodi:guide
       position="70,86"
       orientation="1,0"
       id="guide1686" />
    <sodipodi:guide
       position="115,76"
       orientation="1,0"
       id="guide1688" />
    <sodipodi:guide
       position="120,62.000002"
       orientation="0,-1"
       id="guide1690" />
    <sodipodi:guide
       position="67,66"
       orientation="0,-1"
       id="guide1828" />
    <sodipodi:guide
       position="126,257.00001"
       orientation="0,-1"
       id="guide4026" />
    <sodipodi:guide
       position="94.999998,122"
       orientation="1,0"
       id="guide3740" />
    <sodipodi:guide
       position="92,118"
       orientation="1,0"
       id="guide4238" />
    <sodipodi:guide
       position="98,117"
       orientation="1,0"
       id="guide4240" />
  </sodipodi:namedview>
  <defs
     id="defs20" />
  <g
     inkscape:label="Lag 1"
     inkscape:groupmode="layer"
     id="layer1">
    <path
       style="fill:none;stroke:#000000;stroke-width:2.85657;stroke-linecap:square;stroke-linejoin:round;stroke-miterlimit:4;stroke-dasharray:none;stroke-opacity:1"
       d="M 44.999999,41.000009 50,245 h 85 l 5,-204 v 10e-7"
       id="path70"
       sodipodi:nodetypes="ccccc" />
    <path
       style="fill:none;stroke:#000000;stroke-width:3;stroke-linecap:square;stroke-linejoin:round;stroke-miterlimit:4;stroke-dasharray:none;stroke-opacity:1"
       d="m 50,227 c 0.01615,5.3098 6.607671,8.00633 19.999999,8 H 115 c 14.05961,0.0633 19.79322,-2.94788 20,-8 v 0"
       id="path3229"
       sodipodi:nodetypes="ccccc" />
    <path
       style="fill:none;stroke:#000000;stroke-width:2;stroke-linecap:butt;stroke-linejoin:miter;stroke-miterlimit:4;stroke-dasharray:none;stroke-opacity:1"
       d="m 139,60 -93,-8e-6 -1,8e-6"
       id="path4028"
       sodipodi:nodetypes="ccc" />
    <g
       id="g3665"
       transform="translate(102.48651,18.60833)">
      <path
         style="fill:none;stroke:#000000;stroke-width:1.4;stroke-linecap:butt;stroke-linejoin:miter;stroke-miterlimit:4;stroke-dasharray:none;stroke-opacity:1"
         d="m 77.51349,116.39167 1.50314,23.95288 -23.952878,1.50315 -1.50315,-23.95289 z"
         id="path72-3"
         sodipodi:nodetypes="ccccc" />
      <path
         style="fill:none;stroke:#000000;stroke-width:1.4;stroke-linecap:butt;stroke-linejoin:miter;stroke-miterlimit:4;stroke-dasharray:none;stroke-opacity:1"
         d="m 77.51349,116.39167 3.620419,9.79247 1.315257,20.95877 -20.958775,1.31525 -6.426639,-6.61046 0.998038,-0.0626"
         id="path74-6"
         sodipodi:nodetypes="cccccc" />
      <path
         style="fill:none;stroke:#000000;stroke-width:1.4;stroke-linecap:butt;stroke-linejoin:miter;stroke-miterlimit:4;stroke-dasharray:none;stroke-opacity:1"
         d="m 79.01663,140.34455 3.432536,6.79836"
         id="path76-7"
         sodipodi:nodetypes="cc" />
    </g>
    <g
       id="g3680"
       transform="rotate(-10.0815,-253.05174,939.7836)">
      <path
         style="fill:none;stroke:#000000;stroke-width:1.4;stroke-linecap:butt;stroke-linejoin:miter;stroke-miterlimit:4;stroke-dasharray:none;stroke-opacity:1"
         d="m 102.60283,148.18819 17.66273,16.24894 -16.24893,17.66273 -17.662734,-16.24893 z"
         id="path72-3-6"
         sodipodi:nodetypes="ccccc" />
      <path
         style="fill:none;stroke:#000000;stroke-width:1.4;stroke-linecap:butt;stroke-linejoin:miter;stroke-miterlimit:4;stroke-dasharray:none;stroke-opacity:1"
         d="m 102.60283,148.18819 9.39059,4.56255 15.45489,14.21781 -14.21781,15.4549 -9.21387,-0.32359 0.67704,-0.73595"
         id="path74-6-1"
         sodipodi:nodetypes="cccccc" />
      <path
         style="fill:none;stroke:#000000;stroke-width:1.4;stroke-linecap:butt;stroke-linejoin:miter;stroke-miterlimit:4;stroke-dasharray:none;stroke-opacity:1"
         d="m 120.26556,164.43713 7.18275,2.53142"
         id="path76-7-8"
         sodipodi:nodetypes="cc" />
    </g>
    <g
       id="g3738"
       transform="translate(-97.90637,-9.94198)">
      <path
         style="fill:none;stroke:#000000;stroke-width:1.4;stroke-linecap:butt;stroke-linejoin:miter;stroke-miterlimit:4;stroke-dasharray:none;stroke-opacity:1"
         d="m 60.019518,187.16637 22.886852,-7.22439 7.2244,22.88685 -22.886854,7.2244 z"
         id="path72-3-3"
         sodipodi:nodetypes="ccccc" />
      <path
         style="fill:none;stroke:#000000;stroke-width:1.4;stroke-linecap:butt;stroke-linejoin:miter;stroke-miterlimit:4;stroke-dasharray:none;stroke-opacity:1"
         d="M 60.019518,187.16637 68.652657,181.29535 88.67865,174.974 95,195 l -4.86923,7.82883 -0.30102,-0.95362"
         id="path74-6-6"
         sodipodi:nodetypes="cccccc" />
      <path
         style="fill:none;stroke:#000000;stroke-width:1.4;stroke-linecap:butt;stroke-linejoin:miter;stroke-miterlimit:4;stroke-dasharray:none;stroke-opacity:1"
         d="M 82.90637,179.94198 88.67865,174.974"
         id="path76-7-06"
         sodipodi:nodetypes="cc" />
    </g>
    <g
       id="g6415"
       transform="translate(-9.920997,-3.251733)">
      <g
         id="g3670"
         transform="translate(-85.078999,-11.748275)">
        <path
           style="fill:none;stroke:#000000;stroke-width:1.4;stroke-linecap:butt;stroke-linejoin:miter;stroke-miterlimit:4;stroke-dasharray:none;stroke-opacity:1"
           d="M 84.999996,90.000008 65.303533,76.286907 79.016627,56.590437 98.713099,70.303534 Z"
           id="path72-3-2"
           sodipodi:nodetypes="ccccc" />
        <path
           style="fill:none;stroke:#000000;stroke-width:1.4;stroke-linecap:butt;stroke-linejoin:miter;stroke-miterlimit:4;stroke-dasharray:none;stroke-opacity:1"
           d="M 84.999996,90.000008 75.078999,86.748275 57.844588,74.749319 69.84355,57.514904 l 9.173077,-0.924467 -0.571378,0.82069"
           id="path74-6-7"
           sodipodi:nodetypes="cccccc" />
        <path
           style="fill:none;stroke:#000000;stroke-width:1.4;stroke-linecap:butt;stroke-linejoin:miter;stroke-miterlimit:4;stroke-dasharray:none;stroke-opacity:1"
           d="M 65.303533,76.286907 57.844588,74.749319"
           id="path76-7-0"
           sodipodi:nodetypes="cc" />
      </g>
    </g>
    <g
       id="g3675"
       transform="translate(75.32459,-14.58849)">
      <path
         style="fill:none;stroke:#000000;stroke-width:1.4;stroke-linecap:butt;stroke-linejoin:miter;stroke-miterlimit:4;stroke-dasharray:none;stroke-opacity:1"
         d="m 95.431461,105.24726 14.341219,-19.243932 19.24395,14.341212 -14.34122,19.24395 z"
         id="path72-3-5"
         sodipodi:nodetypes="ccccc"
         inkscape:transform-center-x="-1.323862"
         inkscape:transform-center-y="-0.3707787" />
      <path
         style="fill:none;stroke:#000000;stroke-width:1.4;stroke-linecap:butt;stroke-linejoin:miter;stroke-miterlimit:4;stroke-dasharray:none;stroke-opacity:1"
         d="m 95.431461,105.24726 3.570018,-9.810957 12.548561,-16.83845 16.83846,12.54857 0.62813,9.198117 -0.80184,-0.597546"
         id="path74-6-3"
         sodipodi:nodetypes="cccccc"
         inkscape:transform-center-x="-12.803783"
         inkscape:transform-center-y="-0.34940872" />
      <path
         style="fill:none;stroke:#000000;stroke-width:1.4;stroke-linecap:butt;stroke-linejoin:miter;stroke-miterlimit:4;stroke-dasharray:none;stroke-opacity:1"
         d="m 109.77268,86.003328 1.77736,-7.405475"
         id="path76-7-5"
         sodipodi:nodetypes="cc"
         inkscape:transform-center-x="-21.878557"
         inkscape:transform-center-y="-0.43819219" />
    </g>
    <path
       style="fill:#000002;fill-opacity:1;stroke:#000000;stroke-width:2;stroke-miterlimit:4;stroke-dasharray:none;stroke-opacity:1;paint-order:fill markers stroke"
       id="path3912"
       sodipodi:type="arc"
       sodipodi:cx="94.98204"
       sodipodi:cy="207.55998"
       sodipodi:rx="13.98204"
       sodipodi:ry="19.472342"
       sodipodi:start="4.8727517"
       sodipodi:end="4.5538034"
       sodipodi:arc-type="arc"
       d="M 97.214641,188.33748 A 13.98204,19.472342 0 0 1 108.91866,209.12825 13.98204,19.472342 0 0 1 94.969616,227.03232 13.98204,19.472342 0 0 1 81.043441,209.09376 13.98204,19.472342 0 0 1 92.773973,188.33199"
       sodipodi:open="true" />
    <path
       style="fill:#000002;stroke:#000000;stroke-width:2;stroke-linecap:butt;stroke-linejoin:miter;stroke-opacity:1;stroke-miterlimit:4;stroke-dasharray:none;fill-opacity:1"
       d="M 91.999997,189 92,-15 h 5.999999 v 204"
       id="path4423" />
    <path
       style="fill:none;fill-opacity:1;stroke:#000000;stroke-width:4.4;stroke-miterlimit:4;stroke-dasharray:none;stroke-opacity:1;paint-order:fill markers stroke"
       id="path5570"
       sodipodi:type="arc"
       sodipodi:cx="93.078491"
       sodipodi:cy="20.378422"
       sodipodi:rx="50.078491"
       sodipodi:ry="14.308141"
       sodipodi:start="5.2593615"
       sodipodi:end="4.4047285"
       sodipodi:open="true"
       sodipodi:arc-type="arc"
       d="M 119.12451,8.1577953 A 50.078491,14.308141 0 0 1 140.40082,25.059712 50.078491,14.308141 0 0 1 87.100587,34.584256 50.078491,14.308141 0 0 1 43.221094,21.721439 50.078491,14.308141 0 0 1 77.913232,6.7421247" />
    <path
       style="fill:none;fill-opacity:1;stroke:#000000;stroke-width:11.3386;stroke-miterlimit:4;stroke-dasharray:none;stroke-opacity:1;paint-order:fill markers stroke"
       d=""
       id="path6727"
       transform="scale(0.26458333)" />
    <path
       style="fill:none;fill-opacity:1;stroke:#000000;stroke-width:11.3386;stroke-miterlimit:4;stroke-dasharray:none;stroke-opacity:1;paint-order:fill markers stroke"
       d=""
       id="path6766"
       transform="scale(0.26458333)" />
    <path
       style="fill:none;fill-opacity:1;stroke:#000000;stroke-width:11.3386;stroke-miterlimit:4;stroke-dasharray:none;stroke-opacity:1;paint-order:fill markers stroke"
       d=""
       id="path6805"
       transform="scale(0.26458333)" />
    <path
       style="fill:none;fill-opacity:1;stroke:#000000;stroke-width:0.25055;stroke-miterlimit:4;stroke-dasharray:none;stroke-opacity:1;paint-order:fill markers stroke"
       d="m 358.0391,133.28963 v -7.70084 h 0.99437 0.99437 v 7.70084 7.70083 h -0.99437 -0.99437 z"
       id="path7637"
       transform="scale(0.26458333)" />
    <path
       style="fill:none;fill-opacity:1;stroke:#000000;stroke-width:0.25055;stroke-miterlimit:4;stroke-dasharray:none;stroke-opacity:1;paint-order:fill markers stroke"
       d="m 358.17168,133.28963 v -7.56825 h 0.86179 0.86179 v 7.56825 7.56825 h -0.86179 -0.86179 z"
       id="path7676"
       transform="scale(0.26458333)" />
    <path
       style="fill:none;fill-opacity:1;stroke:#000000;stroke-width:0.25055;stroke-miterlimit:4;stroke-dasharray:none;stroke-opacity:1;paint-order:fill markers stroke"
       d="m 358.30427,133.28963 v -7.43567 h 0.7292 0.7292 v 7.43567 7.43567 h -0.7292 -0.7292 z"
       id="path7715"
       transform="scale(0.26458333)" />
    <path
       style="fill:none;fill-opacity:1;stroke:#000000;stroke-width:0.25055;stroke-miterlimit:4;stroke-dasharray:none;stroke-opacity:1;paint-order:fill markers stroke"
       d="m 358.43685,133.28963 v -7.30309 h 0.59662 0.59662 v 7.30309 7.30309 h -0.59662 -0.59662 z"
       id="path7754"
       transform="scale(0.26458333)" />
    <path
       style="fill:none;fill-opacity:1;stroke:#000000;stroke-width:0.25055;stroke-miterlimit:4;stroke-dasharray:none;stroke-opacity:1;paint-order:fill markers stroke"
       d="m 358.56943,133.28963 v -7.17051 h 0.46404 0.46404 v 7.17051 7.1705 h -0.46404 -0.46404 z"
       id="path7793"
       transform="scale(0.26458333)" />
    <path
       style="fill:none;fill-opacity:1;stroke:#000000;stroke-width:0.25055;stroke-miterlimit:4;stroke-dasharray:none;stroke-opacity:1;paint-order:fill markers stroke"
       d="m 358.70201,133.28963 v -7.03792 h 0.33146 0.33146 v 7.03792 7.03792 h -0.33146 -0.33146 z"
       id="path7832"
       transform="scale(0.26458333)" />
    <path
       style="fill:none;fill-opacity:1;stroke:#000000;stroke-width:0.25055;stroke-miterlimit:4;stroke-dasharray:none;stroke-opacity:1;paint-order:fill markers stroke"
       d="m 358.8346,133.28963 v -6.90534 h 0.19887 0.19887 v 6.90534 6.90534 h -0.19887 -0.19887 z"
       id="path7871"
       transform="scale(0.26458333)" />
    <path
       style="fill:none;fill-opacity:1;stroke:#000000;stroke-width:0.25055;stroke-miterlimit:4;stroke-dasharray:none;stroke-opacity:1;paint-order:fill markers stroke"
       d="m 343.94116,159.80613 v -4.85031 h -11.88823 -11.88824 v -3.76755 -3.76755 h 11.88824 11.88823 V 135.0574 122.69408 h 15.11441 15.1144 v 12.36332 12.36332 h 6.03251 6.0325 v 3.76755 3.76755 h -6.0325 -6.03251 v 4.85031 4.85031 h -15.1144 -15.11441 z m 15.09787,-19.60553 -0.20436,-0.007 -0.006,-6.92108 -0.006,-6.92109 -0.005,6.93296 -0.005,6.93297 0.21544,-0.005 0.21545,-0.005 z"
       id="path7910"
       transform="scale(0.26458333)" />
    <path
       style="fill:none;fill-opacity:1;stroke:#000000;stroke-width:0.25055;stroke-miterlimit:4;stroke-dasharray:none;stroke-opacity:1;paint-order:fill markers stroke"
       d="m 358.96718,133.28963 v -6.77276 h 0.0663 0.0663 v 6.77276 6.77276 h -0.0663 -0.0663 z"
       id="path7912"
       transform="scale(0.26458333)" />
    <path
       style="fill:none;fill-opacity:1;stroke:#000000;stroke-width:0.25055;stroke-miterlimit:4;stroke-dasharray:none;stroke-opacity:1;paint-order:fill markers stroke"
       d="m 343.83067,159.86138 v -4.79507 h -11.83299 -11.83299 v -3.87804 -3.87804 h 11.83299 11.83299 v -12.30808 -12.30807 h 15.2249 15.22489 v 12.30807 12.30808 h 5.97726 5.97726 v 3.87804 3.87804 h -5.97726 -5.97726 v 4.79507 4.79506 h -15.22489 -15.2249 z"
       id="path7951"
       transform="scale(0.26458333)" />
    <path
       style="fill:none;fill-opacity:1;stroke:#000000;stroke-width:0.25055;stroke-miterlimit:4;stroke-dasharray:none;stroke-opacity:1;paint-order:fill markers stroke"
       d="m 343.83067,159.86138 v -4.79507 h -11.83299 -11.83299 v -3.87804 -3.87804 h 11.83299 11.83299 v -12.30808 -12.30807 h 15.2249 15.22489 v 12.30807 12.30808 h 5.97726 5.97726 v 3.87804 3.87804 h -5.97726 -5.97726 v 4.79507 4.79506 h -15.22489 -15.2249 z"
       id="path7990"
       transform="scale(0.26458333)" />
    <path
       style="fill:#c8c8c8;fill-opacity:1;stroke:#000000;stroke-width:4.00879;stroke-miterlimit:4;stroke-dasharray:none;stroke-opacity:1;paint-order:fill markers stroke"
       d=""
       id="path9273"
       transform="scale(0.26458333)" />
    <path
       style="fill:#000002;fill-opacity:1;stroke:none;stroke-width:0.378569px;stroke-linecap:butt;stroke-linejoin:miter;stroke-opacity:1"
       d="M 106.78597,7.4938451 126,19 127.51931,-0.9736989 Z"
       id="path11149"
       sodipodi:nodetypes="cccc" />
    <path
       style="fill:none;fill-opacity:1;stroke:#000000;stroke-width:4.1;stroke-miterlimit:4;stroke-dasharray:none;stroke-opacity:1;paint-order:fill markers stroke"
       id="path5570-7-2"
       sodipodi:type="arc"
       sodipodi:cx="92.470413"
       sodipodi:cy="111.25497"
       sodipodi:rx="33.742165"
       sodipodi:ry="9.6406183"
       sodipodi:start="5.3197672"
       sodipodi:end="4.3933112"
       sodipodi:open="true"
       sodipodi:arc-type="arc"
       d="m 111.72763,103.3386 a 33.742165,9.6406183 0 0 1 12.13067,11.45431 33.742165,9.6406183 0 0 1 -36.235,6.00269 33.742165,9.6406183 0 0 1 -28.766071,-8.6985 33.742165,9.6406183 0 0 1 23.02857,-9.99614" />
    <path
       style="fill:#000002;fill-opacity:1;stroke:none;stroke-width:0.312863px;stroke-linecap:butt;stroke-linejoin:miter;stroke-opacity:1"
       d="M 102.02081,102.85429 118,112.19423 119.08028,95.674889 Z"
       id="path11149-9-0"
       sodipodi:nodetypes="cccc" />
  </g>
</svg>
