<?xml version="1.0" encoding="UTF-8" standalone="no"?>
<!-- Created with Inkscape (http://www.inkscape.org/) -->

<svg
   xmlns:dc="http://purl.org/dc/elements/1.1/"
   xmlns:cc="http://creativecommons.org/ns#"
   xmlns:rdf="http://www.w3.org/1999/02/22-rdf-syntax-ns#"
   xmlns:svg="http://www.w3.org/2000/svg"
   xmlns="http://www.w3.org/2000/svg"
   xmlns:sodipodi="http://sodipodi.sourceforge.net/DTD/sodipodi-0.dtd"
   xmlns:inkscape="http://www.inkscape.org/namespaces/inkscape"
   width="456.44501"
   height="165.54668"
   viewBox="0 0 120.76773 43.800892"
   version="1.1"
   id="svg8"
   inkscape:version="0.92.0 unknown"
   sodipodi:docname="font_serif_sansserif.svg">
  <defs
     id="defs2">
    <marker
       inkscape:isstock="true"
       style="overflow:visible"
       id="marker5405"
       refX="0"
       refY="0"
       orient="auto"
       inkscape:stockid="Arrow2Mstart">
      <path
         transform="scale(0.6)"
         d="M 8.7185878,4.0337352 -2.2072895,0.01601326 8.7185884,-4.0017078 c -1.7454984,2.3720609 -1.7354408,5.6174519 -6e-7,8.035443 z"
         style="fill:#000000;fill-opacity:1;fill-rule:evenodd;stroke:#000000;stroke-width:0.625;stroke-linejoin:round;stroke-opacity:1"
         id="path5403"
         inkscape:connector-curvature="0" />
    </marker>
    <marker
       inkscape:isstock="true"
       style="overflow:visible"
       id="marker5347"
       refX="0"
       refY="0"
       orient="auto"
       inkscape:stockid="Arrow2Mstart">
      <path
         transform="scale(0.6)"
         d="M 8.7185878,4.0337352 -2.2072895,0.01601326 8.7185884,-4.0017078 c -1.7454984,2.3720609 -1.7354408,5.6174519 -6e-7,8.035443 z"
         style="fill:#000000;fill-opacity:1;fill-rule:evenodd;stroke:#000000;stroke-width:0.625;stroke-linejoin:round;stroke-opacity:1"
         id="path5345"
         inkscape:connector-curvature="0" />
    </marker>
    <marker
       inkscape:stockid="Arrow2Mstart"
       orient="auto"
       refY="0"
       refX="0"
       id="marker5289"
       style="overflow:visible"
       inkscape:isstock="true"
       inkscape:collect="always">
      <path
         id="path5287"
         style="fill:#000000;fill-opacity:1;fill-rule:evenodd;stroke:#000000;stroke-width:0.625;stroke-linejoin:round;stroke-opacity:1"
         d="M 8.7185878,4.0337352 -2.2072895,0.01601326 8.7185884,-4.0017078 c -1.7454984,2.3720609 -1.7354408,5.6174519 -6e-7,8.035443 z"
         transform="scale(0.6)"
         inkscape:connector-curvature="0" />
    </marker>
    <marker
       inkscape:isstock="true"
       style="overflow:visible"
       id="marker5223"
       refX="0"
       refY="0"
       orient="auto"
       inkscape:stockid="Arrow2Mend">
      <path
         transform="scale(-0.6)"
         d="M 8.7185878,4.0337352 -2.2072895,0.01601326 8.7185884,-4.0017078 c -1.7454984,2.3720609 -1.7354408,5.6174519 -6e-7,8.035443 z"
         style="fill:#000000;fill-opacity:1;fill-rule:evenodd;stroke:#000000;stroke-width:0.625;stroke-linejoin:round;stroke-opacity:1"
         id="path5221"
         inkscape:connector-curvature="0" />
    </marker>
    <marker
       inkscape:isstock="true"
       style="overflow:visible"
       id="marker5089"
       refX="0"
       refY="0"
       orient="auto"
       inkscape:stockid="Arrow2Mend">
      <path
         transform="scale(-0.6)"
         d="M 8.7185878,4.0337352 -2.2072895,0.01601326 8.7185884,-4.0017078 c -1.7454984,2.3720609 -1.7354408,5.6174519 -6e-7,8.035443 z"
         style="fill:#000000;fill-opacity:1;fill-rule:evenodd;stroke:#000000;stroke-width:0.625;stroke-linejoin:round;stroke-opacity:1"
         id="path5087"
         inkscape:connector-curvature="0" />
    </marker>
    <marker
       inkscape:isstock="true"
       style="overflow:visible"
       id="marker5005"
       refX="0"
       refY="0"
       orient="auto"
       inkscape:stockid="Arrow2Mstart">
      <path
         transform="scale(0.6)"
         d="M 8.7185878,4.0337352 -2.2072895,0.01601326 8.7185884,-4.0017078 c -1.7454984,2.3720609 -1.7354408,5.6174519 -6e-7,8.035443 z"
         style="fill:#000000;fill-opacity:1;fill-rule:evenodd;stroke:#000000;stroke-width:0.625;stroke-linejoin:round;stroke-opacity:1"
         id="path5003"
         inkscape:connector-curvature="0" />
    </marker>
    <marker
       inkscape:stockid="Arrow2Mstart"
       orient="auto"
       refY="0"
       refX="0"
       id="Arrow2Mstart"
       style="overflow:visible"
       inkscape:isstock="true"
       inkscape:collect="always">
      <path
         id="path4575"
         style="fill:#000000;fill-opacity:1;fill-rule:evenodd;stroke:#000000;stroke-width:0.625;stroke-linejoin:round;stroke-opacity:1"
         d="M 8.7185878,4.0337352 -2.2072895,0.01601326 8.7185884,-4.0017078 c -1.7454984,2.3720609 -1.7354408,5.6174519 -6e-7,8.035443 z"
         transform="scale(0.6)"
         inkscape:connector-curvature="0" />
    </marker>
    <marker
       inkscape:isstock="true"
       style="overflow:visible"
       id="marker4969"
       refX="0"
       refY="0"
       orient="auto"
       inkscape:stockid="Arrow2Lend">
      <path
         transform="matrix(-1.1,0,0,-1.1,-1.1,0)"
         d="M 8.7185878,4.0337352 -2.2072895,0.01601326 8.7185884,-4.0017078 c -1.7454984,2.3720609 -1.7354408,5.6174519 -6e-7,8.035443 z"
         style="fill:#000000;fill-opacity:1;fill-rule:evenodd;stroke:#000000;stroke-width:0.625;stroke-linejoin:round;stroke-opacity:1"
         id="path4967"
         inkscape:connector-curvature="0" />
    </marker>
    <marker
       inkscape:isstock="true"
       style="overflow:visible"
       id="marker4907"
       refX="0"
       refY="0"
       orient="auto"
       inkscape:stockid="Arrow2Lend">
      <path
         transform="matrix(-1.1,0,0,-1.1,-1.1,0)"
         d="M 8.7185878,4.0337352 -2.2072895,0.01601326 8.7185884,-4.0017078 c -1.7454984,2.3720609 -1.7354408,5.6174519 -6e-7,8.035443 z"
         style="fill:#000000;fill-opacity:1;fill-rule:evenodd;stroke:#000000;stroke-width:0.625;stroke-linejoin:round;stroke-opacity:1"
         id="path4905"
         inkscape:connector-curvature="0" />
    </marker>
  </defs>
  <sodipodi:namedview
     id="base"
     pagecolor="#ffffff"
     bordercolor="#666666"
     borderopacity="1.0"
     inkscape:pageopacity="0.0"
     inkscape:pageshadow="2"
     inkscape:zoom="5.6"
     inkscape:cx="114.57189"
     inkscape:cy="74.077419"
     inkscape:document-units="mm"
     inkscape:current-layer="layer1"
     showgrid="true"
     inkscape:snap-text-baseline="true"
     inkscape:snap-center="true"
     showguides="true"
     inkscape:guide-bbox="true"
     inkscape:lockguides="false"
     units="px"
     fit-margin-top="10"
     fit-margin-left="0"
     fit-margin-right="0"
     fit-margin-bottom="0"
     inkscape:window-width="1855"
     inkscape:window-height="1176"
     inkscape:window-x="65"
     inkscape:window-y="24"
     inkscape:window-maximized="1">
    <inkscape:grid
       type="xygrid"
       id="grid3680"
       originx="0.26458331"
       originy="-244.73959" />
    <sodipodi:guide
       position="119.32708,11.906255"
       orientation="0,1"
       id="guide3704"
       inkscape:locked="false" />
    <sodipodi:guide
       position="96.837492,27.781253"
       orientation="0,1"
       id="guide3710"
       inkscape:locked="false" />
    <sodipodi:guide
       position="50.535412,-41.010412"
       orientation="1,0"
       id="guide3712"
       inkscape:locked="false" />
    <sodipodi:guide
       position="0.26458219,-50.270822"
       orientation="1,0"
       id="guide3714"
       inkscape:locked="false" />
    <sodipodi:guide
       position="70.379162,-59.531252"
       orientation="1,0"
       id="guide3716"
       inkscape:locked="false" />
    <sodipodi:guide
       position="120.64999,-50.270822"
       orientation="1,0"
       id="guide3718"
       inkscape:locked="false" />
    <sodipodi:guide
       position="25.399997,23.812503"
       orientation="1,0"
       id="guide3720"
       inkscape:locked="false" />
    <sodipodi:guide
       position="95.514576,10.583335"
       orientation="1,0"
       id="guide3722"
       inkscape:locked="false" />
    <sodipodi:guide
       position="14.816665,38.364583"
       orientation="0,1"
       id="guide3724"
       inkscape:locked="false" />
    <sodipodi:guide
       position="59.795831,56.885408"
       orientation="1,0"
       id="guide5828"
       inkscape:locked="false" />
  </sodipodi:namedview>
  <metadata
     id="metadata5">
    <rdf:RDF>
      <cc:Work
         rdf:about="">
        <dc:format>image/svg+xml</dc:format>
        <dc:type
           rdf:resource="http://purl.org/dc/dcmitype/StillImage" />
        <dc:title></dc:title>
      </cc:Work>
    </rdf:RDF>
  </metadata>
  <g
     inkscape:label="Layer 1"
     inkscape:groupmode="layer"
     id="layer1"
     transform="translate(0.26458234,-8.4595172)">
    <g
       aria-label="ABC"
       style="font-style:normal;font-variant:normal;font-weight:normal;font-stretch:normal;font-size:10.01215363px;line-height:12.51519203px;font-family:Ubuntu;-inkscape-font-specification:'Ubuntu, Normal';text-align:start;letter-spacing:0px;word-spacing:0px;writing-mode:lr-tb;text-anchor:start;fill:#000000;fill-opacity:1;stroke:none;stroke-width:0.50060767px;stroke-linecap:butt;stroke-linejoin:miter;stroke-opacity:1"
       id="text3684">
      <path
         d="m 84.441049,45.06189 q -0.453884,-1.201459 -0.85437,-2.349519 -0.400486,-1.174759 -0.827672,-2.376218 h -8.383509 l -1.682042,4.725737 h -2.696607 q 1.067963,-2.936899 2.002431,-5.419913 0.934467,-2.509713 1.815537,-4.752435 0.907769,-2.242723 1.788838,-4.271852 0.88107,-2.055829 1.842236,-4.05826 h 2.376218 q 0.961167,2.002431 1.842236,4.05826 0.88107,2.029129 1.762139,4.271852 0.907769,2.242722 1.842236,4.752435 0.934468,2.483014 2.002431,5.419913 z m -2.429616,-6.861663 q -0.85437,-2.322819 -1.708741,-4.485445 -0.827671,-2.189324 -1.73544,-4.191754 -0.934467,2.00243 -1.788838,4.191754 -0.827671,2.162626 -1.655342,4.485445 z"
         style="font-style:normal;font-variant:normal;font-weight:normal;font-stretch:normal;font-size:26.6990757px;font-family:Ubuntu;-inkscape-font-specification:'Ubuntu, Normal';font-variant-ligatures:normal;font-variant-caps:normal;font-variant-numeric:normal;font-feature-settings:normal;text-align:start;writing-mode:lr-tb;text-anchor:start;stroke-width:0.50060767px"
         id="path3840" />
      <path
         d="m 94.749812,45.222084 q -0.560681,0 -1.228158,-0.0267 -0.640777,-0.0267 -1.308254,-0.0801 -0.640778,-0.0534 -1.281556,-0.133496 -0.640778,-0.0801 -1.174759,-0.213592 V 26.826421 q 0.533981,-0.133495 1.174759,-0.213593 0.640778,-0.0801 1.281556,-0.133495 0.667477,-0.0534 1.308254,-0.0801 0.640778,-0.0267 1.201459,-0.0267 1.601944,0 2.990296,0.240291 1.415051,0.240292 2.429621,0.827672 1.04126,0.56068 1.62864,1.495148 0.58738,0.934468 0.58738,2.29612 0,1.521848 -0.72088,2.509714 -0.72087,0.961166 -1.92233,1.44175 1.62864,0.480583 2.58981,1.521847 0.96117,1.041264 0.96117,2.936898 0,2.776704 -2.05583,4.191755 -2.029132,1.388352 -6.461178,1.388352 z m -2.429616,-8.783996 v 6.514575 q 0.29369,0.0267 0.694176,0.0534 0.347088,0.0267 0.800972,0.0534 0.480584,0 1.094662,0 1.148061,0 2.162625,-0.133495 1.041264,-0.160195 1.815538,-0.533982 0.774273,-0.373787 1.228161,-1.041264 0.48058,-0.667477 0.48058,-1.682042 0,-0.907768 -0.34709,-1.521847 -0.347087,-0.640778 -1.014563,-1.014565 -0.640778,-0.373787 -1.548547,-0.533981 -0.907768,-0.160195 -2.02913,-0.160195 z m 0,-2.082528 h 2.723306 q 0.961166,0 1.815537,-0.133495 0.85437,-0.133495 1.468449,-0.480583 0.640778,-0.347088 0.987866,-0.907769 0.373787,-0.560681 0.373787,-1.415051 0,-0.800972 -0.373787,-1.334954 -0.373787,-0.56068 -1.041264,-0.881069 -0.640778,-0.347088 -1.521847,-0.507283 -0.88107,-0.160194 -1.868936,-0.160194 -0.987866,0 -1.548546,0.0267 -0.560681,0.0267 -1.014565,0.0801 z"
         style="font-style:normal;font-variant:normal;font-weight:normal;font-stretch:normal;font-size:26.6990757px;font-family:Ubuntu;-inkscape-font-specification:'Ubuntu, Normal';font-variant-ligatures:normal;font-variant-caps:normal;font-variant-numeric:normal;font-feature-settings:normal;text-align:start;writing-mode:lr-tb;text-anchor:start;stroke-width:0.50060767px"
         id="path3842" />
      <path
         d="m 114.86965,45.462376 q -1.94903,0 -3.55098,-0.640778 -1.60194,-0.640778 -2.75,-1.868935 -1.14806,-1.228158 -1.78884,-3.016996 -0.61408,-1.815537 -0.61408,-4.138357 0,-2.322819 0.69418,-4.111657 0.72087,-1.815537 1.92233,-3.043695 1.20146,-1.228157 2.80341,-1.868935 1.60194,-0.640778 3.41748,-0.640778 1.14806,0 2.05583,0.160194 0.93446,0.160195 1.60194,0.373787 0.69418,0.213593 1.12136,0.427186 0.42719,0.213592 0.58738,0.320389 l -0.74757,2.135926 q -0.24029,-0.160195 -0.69418,-0.347088 -0.45388,-0.186894 -1.04126,-0.373787 -0.56068,-0.186894 -1.25486,-0.29369 -0.66748,-0.133496 -1.36165,-0.133496 -1.46845,0 -2.64321,0.507283 -1.17476,0.507282 -2.00243,1.468449 -0.82767,0.961167 -1.28156,2.349519 -0.42718,1.361653 -0.42718,3.070393 0,1.655343 0.37378,3.016996 0.40049,1.361653 1.17476,2.349519 0.77428,0.961166 1.92234,1.495148 1.17476,0.533981 2.7233,0.533981 1.78884,0 2.9636,-0.373787 1.17476,-0.373787 1.76214,-0.667477 l 0.66748,2.135926 q -0.1869,0.133496 -0.66748,0.347088 -0.48058,0.186894 -1.20146,0.373787 -0.72087,0.186894 -1.68204,0.320389 -0.96117,0.133496 -2.08253,0.133496 z"
         style="font-style:normal;font-variant:normal;font-weight:normal;font-stretch:normal;font-size:26.6990757px;font-family:Ubuntu;-inkscape-font-specification:'Ubuntu, Normal';font-variant-ligatures:normal;font-variant-caps:normal;font-variant-numeric:normal;font-feature-settings:normal;text-align:start;writing-mode:lr-tb;text-anchor:start;stroke-width:0.50060767px"
         id="path3844" />
    </g>
    <g
       aria-label="ABC"
       style="font-style:normal;font-variant:normal;font-weight:normal;font-stretch:normal;font-size:9.23060513px;line-height:11.53825665px;font-family:Ubuntu;-inkscape-font-specification:'Ubuntu, Normal';text-align:start;letter-spacing:0px;word-spacing:0px;writing-mode:lr-tb;text-anchor:start;fill:#000000;fill-opacity:1;stroke:none;stroke-width:0.46153024px;stroke-linecap:butt;stroke-linejoin:miter;stroke-opacity:1"
       id="text3684-9">
      <path
         d="M 11.403689,39.410085 H 5.0937048 l -1.1057495,2.572069 q -0.4086466,0.949503 -0.4086466,1.418244 0,0.37259 0.3485515,0.661046 0.3605705,0.276438 1.5384342,0.360571 v 0.444703 H 0.33417419 V 44.422015 Q 1.3557906,44.241729 1.656266,43.953273 2.2692359,43.37636 3.0144149,41.609565 l 5.733071,-13.413223 h 0.4206656 l 5.6729755,13.557451 q 0.685084,1.634586 1.237959,2.127366 0.564894,0.480761 1.562472,0.540856 v 0.444703 h -6.430174 v -0.444703 q 0.973541,-0.04808 1.310073,-0.324514 0.348552,-0.276437 0.348552,-0.673065 0,-0.528836 -0.480761,-1.670643 z M 11.067156,38.520677 8.3027823,31.934256 5.4662944,38.520677 Z"
         style="font-style:normal;font-variant:normal;font-weight:normal;font-stretch:normal;font-size:24.61494637px;font-family:'Times New Roman';-inkscape-font-specification:'Times New Roman, Normal';font-variant-ligatures:normal;font-variant-caps:normal;font-variant-numeric:normal;font-feature-settings:normal;text-align:start;writing-mode:lr-tb;text-anchor:start;stroke-width:0.46153024px"
         id="path3833" />
      <path
         d="m 29.300005,36.549559 q 1.694681,0.36057 2.536012,1.153825 1.165845,1.10575 1.165845,2.704279 0,1.213921 -0.769217,2.331689 -0.769217,1.10575 -2.115347,1.622568 -1.334111,0.504798 -4.086466,0.504798 h -7.69217 v -0.444703 h 0.612969 q 1.021617,0 1.46632,-0.649027 0.276438,-0.420666 0.276438,-1.790834 V 31.453496 q 0,-1.514397 -0.348552,-1.911024 -0.468741,-0.528837 -1.394206,-0.528837 h -0.612969 v -0.444703 h 7.043143 q 1.971119,0 3.161002,0.288456 1.802852,0.432685 2.752355,1.538434 0.949502,1.093731 0.949502,2.523994 0,1.225939 -0.745179,2.19948 -0.745179,0.961521 -2.19948,1.430263 z M 23.00204,35.900532 q 0.444704,0.08413 1.009597,0.132209 0.576913,0.03606 1.261997,0.03606 1.754777,0 2.632165,-0.37259 0.889407,-0.384608 1.358149,-1.165844 0.468741,-0.781236 0.468741,-1.706701 0,-1.430263 -1.165844,-2.43986 -1.165845,-1.009597 -3.401382,-1.009597 -1.201902,0 -2.163423,0.264418 z m 0,7.788323 q 1.394206,0.324513 2.752355,0.324513 2.175442,0 3.317249,-0.97354 1.141806,-0.98556 1.141806,-2.427842 0,-0.949502 -0.516818,-1.82689 -0.516817,-0.877388 -1.682662,-1.382187 -1.165845,-0.504799 -2.884564,-0.504799 -0.745179,0 -1.274016,0.02404 -0.528836,0.02404 -0.85335,0.08413 z"
         style="font-style:normal;font-variant:normal;font-weight:normal;font-stretch:normal;font-size:24.61494637px;font-family:'Times New Roman';-inkscape-font-specification:'Times New Roman, Normal';font-variant-ligatures:normal;font-variant-caps:normal;font-variant-numeric:normal;font-feature-settings:normal;text-align:start;writing-mode:lr-tb;text-anchor:start;stroke-width:0.46153024px"
         id="path3835" />
      <path
         d="m 49.191477,28.196342 0.37259,5.540767 h -0.37259 q -0.745179,-2.487937 -2.127366,-3.581667 -1.382187,-1.093731 -3.317248,-1.093731 -1.622567,0 -2.93264,0.829312 -1.310073,0.817294 -2.067271,2.620146 -0.745179,1.802853 -0.745179,4.483093 0,2.211499 0.709122,3.834067 0.709122,1.622567 2.127366,2.487936 1.430263,0.865369 3.257153,0.865369 1.58651,0 2.800431,-0.673065 1.213921,-0.685084 2.668222,-2.704278 l 0.372589,0.24038 q -1.225939,2.175442 -2.860526,3.185039 -1.634586,1.009598 -3.882142,1.009598 -4.050409,0 -6.273927,-3.004754 -1.658624,-2.235538 -1.658624,-5.26433 0,-2.43986 1.09373,-4.483093 1.093731,-2.043233 3.004755,-3.161001 1.923042,-1.129788 4.194636,-1.129788 1.766796,0 3.485515,0.865369 0.504799,0.264419 0.721141,0.264419 0.324514,0 0.564894,-0.228362 0.312495,-0.324513 0.444704,-0.901426 z"
         style="font-style:normal;font-variant:normal;font-weight:normal;font-stretch:normal;font-size:24.61494637px;font-family:'Times New Roman';-inkscape-font-specification:'Times New Roman, Normal';font-variant-ligatures:normal;font-variant-caps:normal;font-variant-numeric:normal;font-feature-settings:normal;text-align:start;writing-mode:lr-tb;text-anchor:start;stroke-width:0.46153024px"
         id="path3837" />
    </g>
    <g
       aria-label="Serif"
       style="font-style:normal;font-variant:normal;font-weight:normal;font-stretch:normal;font-size:5.29166651px;line-height:6.61458302px;font-family:Ubuntu;-inkscape-font-specification:'Ubuntu, Normal';text-align:start;letter-spacing:0px;word-spacing:0px;writing-mode:lr-tb;text-anchor:start;fill:#000000;fill-opacity:1;stroke:none;stroke-width:0.26458332px;stroke-linecap:butt;stroke-linejoin:miter;stroke-opacity:1"
       id="text3708">
      <path
         d="m 18.089165,16.533199 q 1.286933,0 1.286933,-0.880533 0,-0.270933 -0.118533,-0.4572 -0.110067,-0.194733 -0.3048,-0.3302 -0.194734,-0.143933 -0.448734,-0.245533 -0.245533,-0.1016 -0.524933,-0.2032 -0.321733,-0.110067 -0.6096,-0.245534 -0.287867,-0.143933 -0.499533,-0.3302 -0.211667,-0.194733 -0.338667,-0.4572 -0.118533,-0.262466 -0.118533,-0.635 0,-0.770466 0.524933,-1.202266 0.524933,-0.4318 1.4478,-0.4318 0.5334,0 0.9652,0.118533 0.440267,0.110067 0.643467,0.245534 l -0.262467,0.668866 q -0.1778,-0.110067 -0.5334,-0.211667 -0.347133,-0.110066 -0.8128,-0.110066 -0.237067,0 -0.440267,0.0508 -0.2032,0.0508 -0.3556,0.1524 -0.1524,0.1016 -0.245533,0.262466 -0.08467,0.1524 -0.08467,0.364067 0,0.237067 0.09313,0.397933 0.09313,0.160867 0.262466,0.287867 0.169334,0.118533 0.389467,0.220133 0.2286,0.1016 0.499533,0.2032 0.381,0.1524 0.694267,0.3048 0.321733,0.1524 0.550333,0.364067 0.237067,0.211667 0.364067,0.508 0.127,0.287867 0.127,0.702733 0,0.770467 -0.567267,1.185334 -0.5588,0.414866 -1.583266,0.414866 -0.347134,0 -0.643467,-0.0508 -0.287867,-0.04233 -0.516467,-0.1016 -0.2286,-0.06773 -0.397933,-0.135466 -0.160867,-0.0762 -0.254,-0.127 l 0.245533,-0.677334 q 0.194734,0.110067 0.592667,0.245534 0.397933,0.135466 0.973667,0.135466 z"
         style="font-style:normal;font-variant:normal;font-weight:normal;font-stretch:normal;font-size:8.46666622px;font-family:Ubuntu;-inkscape-font-specification:'Ubuntu, Normal';font-variant-ligatures:normal;font-variant-caps:normal;font-variant-numeric:normal;font-feature-settings:normal;text-align:start;writing-mode:lr-tb;text-anchor:start;stroke-width:0.26458332px"
         id="path3822" />
      <path
         d="m 20.927614,14.924533 q 0,-0.5842 0.169334,-1.016 0.169333,-0.440267 0.448733,-0.728134 0.2794,-0.287866 0.643467,-0.4318 0.364066,-0.143933 0.745066,-0.143933 0.889,0 1.363133,0.5588 0.474134,0.550333 0.474134,1.684867 0,0.0508 0,0.135466 0,0.0762 -0.0085,0.143934 h -3.014133 q 0.0508,0.6858 0.397933,1.0414 0.347134,0.3556 1.083734,0.3556 0.414866,0 0.694266,-0.06773 0.287867,-0.0762 0.4318,-0.143933 l 0.110067,0.6604 q -0.143934,0.0762 -0.508,0.160867 -0.3556,0.08467 -0.8128,0.08467 -0.575733,0 -0.999067,-0.169333 -0.414866,-0.1778 -0.6858,-0.4826 -0.270933,-0.3048 -0.4064,-0.719667 -0.127,-0.423333 -0.127,-0.922866 z m 3.0226,-0.4318 q 0.0085,-0.5334 -0.270933,-0.872067 -0.270933,-0.347133 -0.753533,-0.347133 -0.270934,0 -0.4826,0.110066 -0.2032,0.1016 -0.347134,0.270934 -0.143933,0.169333 -0.2286,0.389466 -0.0762,0.220134 -0.1016,0.448734 z"
         style="font-style:normal;font-variant:normal;font-weight:normal;font-stretch:normal;font-size:8.46666622px;font-family:Ubuntu;-inkscape-font-specification:'Ubuntu, Normal';font-variant-ligatures:normal;font-variant-caps:normal;font-variant-numeric:normal;font-feature-settings:normal;text-align:start;writing-mode:lr-tb;text-anchor:start;stroke-width:0.26458332px"
         id="path3824" />
      <path
         d="m 27.528174,12.621599 q 0.1016,0 0.2286,0.01693 0.135467,0.0085 0.262467,0.03387 0.127,0.01693 0.2286,0.04233 0.110066,0.01693 0.160866,0.03387 l -0.135466,0.6858 q -0.09313,-0.03387 -0.313267,-0.0762 -0.211667,-0.0508 -0.550333,-0.0508 -0.220134,0 -0.440267,0.0508 -0.211667,0.04233 -0.2794,0.05927 v 3.699933 h -0.7874 v -4.2164 q 0.2794,-0.1016 0.694267,-0.186266 0.414866,-0.09313 0.931333,-0.09313 z"
         style="font-style:normal;font-variant:normal;font-weight:normal;font-stretch:normal;font-size:8.46666622px;font-family:Ubuntu;-inkscape-font-specification:'Ubuntu, Normal';font-variant-ligatures:normal;font-variant-caps:normal;font-variant-numeric:normal;font-feature-settings:normal;text-align:start;writing-mode:lr-tb;text-anchor:start;stroke-width:0.26458332px"
         id="path3826" />
      <path
         d="m 29.964193,17.117399 h -0.787399 v -4.402666 h 0.787399 z M 29.56626,11.918866 q -0.211666,0 -0.364066,-0.135467 -0.143934,-0.143933 -0.143934,-0.380999 0,-0.237067 0.143934,-0.372534 0.1524,-0.143933 0.364066,-0.143933 0.211667,0 0.3556,0.143933 0.1524,0.135467 0.1524,0.372534 0,0.237066 -0.1524,0.380999 -0.143933,0.135467 -0.3556,0.135467 z"
         style="font-style:normal;font-variant:normal;font-weight:normal;font-stretch:normal;font-size:8.46666622px;font-family:Ubuntu;-inkscape-font-specification:'Ubuntu, Normal';font-variant-ligatures:normal;font-variant-caps:normal;font-variant-numeric:normal;font-feature-settings:normal;text-align:start;writing-mode:lr-tb;text-anchor:start;stroke-width:0.26458332px"
         id="path3828" />
      <path
         d="m 33.045266,10.547266 q 0.347133,0 0.592667,0.0508 0.254,0.0508 0.3556,0.09313 l -0.143934,0.677333 q -0.1016,-0.0508 -0.287866,-0.09313 -0.186267,-0.0508 -0.4572,-0.0508 -0.550334,0 -0.770467,0.3048 -0.220133,0.296333 -0.220133,0.804333 v 0.381 h 1.693333 v 0.6604 h -1.693333 v 3.742266 h -0.7874 v -4.8006 q 0,-0.846666 0.414866,-1.303866 0.414867,-0.465667 1.303867,-0.465667 z"
         style="font-style:normal;font-variant:normal;font-weight:normal;font-stretch:normal;font-size:8.46666622px;font-family:Ubuntu;-inkscape-font-specification:'Ubuntu, Normal';font-variant-ligatures:normal;font-variant-caps:normal;font-variant-numeric:normal;font-feature-settings:normal;text-align:start;writing-mode:lr-tb;text-anchor:start;stroke-width:0.26458332px"
         id="path3830" />
    </g>
    <g
       aria-label="Sans-serif"
       style="font-style:normal;font-variant:normal;font-weight:normal;font-stretch:normal;font-size:5.29166651px;line-height:6.61458349px;font-family:Ubuntu;-inkscape-font-specification:'Ubuntu, Normal';text-align:start;letter-spacing:0px;word-spacing:0px;writing-mode:lr-tb;text-anchor:start;fill:#000000;fill-opacity:1;stroke:none;stroke-width:0.26458332px;stroke-linecap:butt;stroke-linejoin:miter;stroke-opacity:1"
       id="text3708-4">
      <path
         d="m 78.529919,16.533199 q 1.286933,0 1.286933,-0.880533 0,-0.270933 -0.118533,-0.4572 -0.110067,-0.194733 -0.3048,-0.3302 -0.194734,-0.143933 -0.448734,-0.245533 -0.245533,-0.1016 -0.524933,-0.2032 -0.321733,-0.110067 -0.6096,-0.245534 -0.287867,-0.143933 -0.499533,-0.3302 -0.211667,-0.194733 -0.338667,-0.4572 -0.118533,-0.262466 -0.118533,-0.635 0,-0.770466 0.524933,-1.202266 0.524933,-0.4318 1.4478,-0.4318 0.5334,0 0.9652,0.118533 0.440267,0.110067 0.643466,0.245534 l -0.262466,0.668866 q -0.1778,-0.110067 -0.5334,-0.211667 -0.347133,-0.110066 -0.8128,-0.110066 -0.237067,0 -0.440267,0.0508 -0.2032,0.0508 -0.3556,0.1524 -0.1524,0.1016 -0.245533,0.262466 -0.08467,0.1524 -0.08467,0.364067 0,0.237067 0.09313,0.397933 0.09313,0.160867 0.262466,0.287867 0.169334,0.118533 0.389467,0.220133 0.2286,0.1016 0.499533,0.2032 0.381,0.1524 0.694267,0.3048 0.321733,0.1524 0.550333,0.364067 0.237067,0.211667 0.364067,0.508 0.127,0.287867 0.127,0.702733 0,0.770467 -0.567267,1.185334 -0.5588,0.414866 -1.583266,0.414866 -0.347134,0 -0.643467,-0.0508 -0.287867,-0.04233 -0.516467,-0.1016 -0.2286,-0.06773 -0.397933,-0.135466 -0.160867,-0.0762 -0.254,-0.127 l 0.245533,-0.677334 q 0.194734,0.110067 0.592667,0.245534 0.397933,0.135466 0.973667,0.135466 z"
         style="font-style:normal;font-variant:normal;font-weight:normal;font-stretch:normal;font-size:8.46666622px;font-family:Ubuntu;-inkscape-font-specification:'Ubuntu, Normal';font-variant-ligatures:normal;font-variant-caps:normal;font-variant-numeric:normal;font-feature-settings:normal;text-align:start;writing-mode:lr-tb;text-anchor:start;stroke-width:0.26458332px"
         id="path3801" />
      <path
         d="m 83.104035,16.550133 q 0.2794,0 0.491066,-0.0085 0.220134,-0.01693 0.364067,-0.0508 v -1.312333 q -0.08467,-0.04233 -0.2794,-0.06773 -0.186267,-0.03387 -0.4572,-0.03387 -0.1778,0 -0.381,0.0254 -0.194733,0.0254 -0.364066,0.110066 -0.160867,0.0762 -0.270934,0.220134 -0.110066,0.135466 -0.110066,0.364066 0,0.423334 0.270933,0.592667 0.270933,0.160867 0.7366,0.160867 z m -0.06773,-3.945467 q 0.474134,0 0.795867,0.127 0.3302,0.118533 0.524933,0.347133 0.2032,0.220134 0.287867,0.5334 0.08467,0.3048 0.08467,0.677334 v 2.751666 q -0.1016,0.01693 -0.287867,0.0508 -0.1778,0.0254 -0.4064,0.0508 -0.2286,0.0254 -0.499533,0.04233 -0.262467,0.0254 -0.524934,0.0254 -0.372533,0 -0.685799,-0.0762 -0.313267,-0.0762 -0.541867,-0.237067 -0.2286,-0.169333 -0.3556,-0.440267 -0.127,-0.270933 -0.127,-0.651933 0,-0.364067 0.143933,-0.626533 0.1524,-0.262467 0.4064,-0.423334 0.254,-0.160866 0.592667,-0.237066 0.338666,-0.0762 0.7112,-0.0762 0.118533,0 0.245533,0.01693 0.127,0.0085 0.237067,0.03387 0.118533,0.01693 0.2032,0.03387 0.08467,0.01693 0.118533,0.0254 v -0.220133 q 0,-0.194733 -0.04233,-0.381 -0.04233,-0.194733 -0.1524,-0.338667 -0.110067,-0.1524 -0.3048,-0.237066 -0.186267,-0.09313 -0.491067,-0.09313 -0.389466,0 -0.6858,0.05927 -0.287866,0.0508 -0.4318,0.110067 l -0.09313,-0.651934 q 0.1524,-0.06773 0.508,-0.127 0.3556,-0.06773 0.770466,-0.06773 z"
         style="font-style:normal;font-variant:normal;font-weight:normal;font-stretch:normal;font-size:8.46666622px;font-family:Ubuntu;-inkscape-font-specification:'Ubuntu, Normal';font-variant-ligatures:normal;font-variant-caps:normal;font-variant-numeric:normal;font-feature-settings:normal;text-align:start;writing-mode:lr-tb;text-anchor:start;stroke-width:0.26458332px"
         id="path3803" />
      <path
         d="m 86.029136,12.841733 q 0.270933,-0.06773 0.719667,-0.143934 0.448733,-0.0762 1.032933,-0.0762 0.524933,0 0.872067,0.1524 0.347133,0.143934 0.550333,0.414867 0.211667,0.262467 0.296333,0.635 0.08467,0.372533 0.08467,0.821267 v 2.472266 h -0.7874 v -2.302933 q 0,-0.4064 -0.05927,-0.694267 -0.0508,-0.287866 -0.1778,-0.465666 -0.127,-0.1778 -0.338666,-0.254 -0.211667,-0.08467 -0.524934,-0.08467 -0.127,0 -0.262466,0.0085 -0.135467,0.0085 -0.262467,0.0254 -0.118533,0.0085 -0.220133,0.0254 -0.09313,0.01693 -0.135467,0.0254 v 3.716866 h -0.7874 z"
         style="font-style:normal;font-variant:normal;font-weight:normal;font-stretch:normal;font-size:8.46666622px;font-family:Ubuntu;-inkscape-font-specification:'Ubuntu, Normal';font-variant-ligatures:normal;font-variant-caps:normal;font-variant-numeric:normal;font-feature-settings:normal;text-align:start;writing-mode:lr-tb;text-anchor:start;stroke-width:0.26458332px"
         id="path3805" />
      <path
         d="m 91.915321,16.550133 q 0.4826,0 0.7112,-0.127 0.237067,-0.127 0.237067,-0.4064 0,-0.287867 -0.2286,-0.4572 -0.2286,-0.169334 -0.753534,-0.381 -0.254,-0.1016 -0.491066,-0.2032 -0.2286,-0.110067 -0.397934,-0.254 -0.169333,-0.143934 -0.270933,-0.347134 -0.1016,-0.2032 -0.1016,-0.499533 0,-0.5842 0.4318,-0.922867 0.4318,-0.347133 1.176867,-0.347133 0.186266,0 0.372533,0.0254 0.186267,0.01693 0.347133,0.0508 0.160867,0.0254 0.2794,0.05927 0.127,0.03387 0.194734,0.05927 l -0.143934,0.677334 q -0.127,-0.06773 -0.397933,-0.135467 -0.270933,-0.0762 -0.651933,-0.0762 -0.3302,0 -0.575734,0.135467 -0.245533,0.127 -0.245533,0.4064 0,0.143933 0.0508,0.254 0.05927,0.110066 0.169333,0.2032 0.118534,0.08467 0.287867,0.160866 0.169333,0.0762 0.4064,0.160867 0.313267,0.118533 0.5588,0.237067 0.245533,0.110066 0.414867,0.262466 0.177799,0.1524 0.270933,0.372534 0.09313,0.211666 0.09313,0.524933 0,0.6096 -0.4572,0.922867 -0.448733,0.313266 -1.286933,0.313266 -0.5842,0 -0.9144,-0.1016 -0.3302,-0.09313 -0.448733,-0.143933 l 0.143933,-0.677333 q 0.135467,0.0508 0.4318,0.1524 0.296333,0.1016 0.7874,0.1016 z"
         style="font-style:normal;font-variant:normal;font-weight:normal;font-stretch:normal;font-size:8.46666622px;font-family:Ubuntu;-inkscape-font-specification:'Ubuntu, Normal';font-variant-ligatures:normal;font-variant-caps:normal;font-variant-numeric:normal;font-feature-settings:normal;text-align:start;writing-mode:lr-tb;text-anchor:start;stroke-width:0.26458332px"
         id="path3807" />
      <path
         d="m 94.203967,14.213333 h 2.091266 v 0.7366 h -2.091266 z"
         style="font-style:normal;font-variant:normal;font-weight:normal;font-stretch:normal;font-size:8.46666622px;font-family:Ubuntu;-inkscape-font-specification:'Ubuntu, Normal';font-variant-ligatures:normal;font-variant-caps:normal;font-variant-numeric:normal;font-feature-settings:normal;text-align:start;writing-mode:lr-tb;text-anchor:start;stroke-width:0.26458332px"
         id="path3809" />
      <path
         d="m 98.215712,16.550133 q 0.4826,0 0.7112,-0.127 0.237067,-0.127 0.237067,-0.4064 0,-0.287867 -0.2286,-0.4572 -0.2286,-0.169334 -0.753534,-0.381 -0.254,-0.1016 -0.491066,-0.2032 -0.2286,-0.110067 -0.397934,-0.254 -0.169333,-0.143934 -0.270933,-0.347134 -0.1016,-0.2032 -0.1016,-0.499533 0,-0.5842 0.4318,-0.922867 0.4318,-0.347133 1.176867,-0.347133 0.186266,0 0.372533,0.0254 0.186267,0.01693 0.347133,0.0508 0.160867,0.0254 0.2794,0.05927 0.127,0.03387 0.194734,0.05927 l -0.143934,0.677334 q -0.127,-0.06773 -0.397933,-0.135467 -0.270933,-0.0762 -0.651933,-0.0762 -0.3302,0 -0.575734,0.135467 -0.245533,0.127 -0.245533,0.4064 0,0.143933 0.0508,0.254 0.05927,0.110066 0.169333,0.2032 0.118534,0.08467 0.287867,0.160866 0.169333,0.0762 0.4064,0.160867 0.313267,0.118533 0.5588,0.237067 0.245533,0.110066 0.414867,0.262466 0.1778,0.1524 0.270933,0.372534 0.09313,0.211666 0.09313,0.524933 0,0.6096 -0.4572,0.922867 -0.448733,0.313266 -1.286933,0.313266 -0.5842,0 -0.9144,-0.1016 -0.3302,-0.09313 -0.448733,-0.143933 l 0.143933,-0.677333 q 0.135467,0.0508 0.4318,0.1524 0.296333,0.1016 0.7874,0.1016 z"
         style="font-style:normal;font-variant:normal;font-weight:normal;font-stretch:normal;font-size:8.46666622px;font-family:Ubuntu;-inkscape-font-specification:'Ubuntu, Normal';font-variant-ligatures:normal;font-variant-caps:normal;font-variant-numeric:normal;font-feature-settings:normal;text-align:start;writing-mode:lr-tb;text-anchor:start;stroke-width:0.26458332px"
         id="path3811" />
      <path
         d="m 100.71602,14.924533 q 0,-0.5842 0.16934,-1.016 0.16933,-0.440267 0.44873,-0.728134 0.2794,-0.287866 0.64347,-0.4318 0.36406,-0.143933 0.74506,-0.143933 0.889,0 1.36314,0.5588 0.47413,0.550333 0.47413,1.684867 0,0.0508 0,0.135466 0,0.0762 -0.008,0.143934 h -3.01413 q 0.0508,0.6858 0.39793,1.0414 0.34714,0.3556 1.08374,0.3556 0.41486,0 0.69426,-0.06773 0.28787,-0.0762 0.4318,-0.143933 l 0.11007,0.6604 q -0.14393,0.0762 -0.508,0.160867 -0.3556,0.08467 -0.8128,0.08467 -0.57573,0 -0.99907,-0.169333 -0.41486,-0.1778 -0.6858,-0.4826 -0.27093,-0.3048 -0.4064,-0.719667 -0.127,-0.423333 -0.127,-0.922866 z m 3.0226,-0.4318 q 0.008,-0.5334 -0.27093,-0.872067 -0.27093,-0.347133 -0.75353,-0.347133 -0.27094,0 -0.4826,0.110066 -0.2032,0.1016 -0.34714,0.270934 -0.14393,0.169333 -0.2286,0.389466 -0.0762,0.220134 -0.1016,0.448734 z"
         style="font-style:normal;font-variant:normal;font-weight:normal;font-stretch:normal;font-size:8.46666622px;font-family:Ubuntu;-inkscape-font-specification:'Ubuntu, Normal';font-variant-ligatures:normal;font-variant-caps:normal;font-variant-numeric:normal;font-feature-settings:normal;text-align:start;writing-mode:lr-tb;text-anchor:start;stroke-width:0.26458332px"
         id="path3813" />
      <path
         d="m 107.31658,12.621599 q 0.1016,0 0.2286,0.01693 0.13547,0.0085 0.26247,0.03387 0.127,0.01693 0.2286,0.04233 0.11007,0.01693 0.16087,0.03387 l -0.13547,0.6858 q -0.0931,-0.03387 -0.31327,-0.0762 -0.21166,-0.0508 -0.55033,-0.0508 -0.22013,0 -0.44027,0.0508 -0.21166,0.04233 -0.2794,0.05927 v 3.699933 h -0.7874 v -4.2164 q 0.2794,-0.1016 0.69427,-0.186266 0.41487,-0.09313 0.93133,-0.09313 z"
         style="font-style:normal;font-variant:normal;font-weight:normal;font-stretch:normal;font-size:8.46666622px;font-family:Ubuntu;-inkscape-font-specification:'Ubuntu, Normal';font-variant-ligatures:normal;font-variant-caps:normal;font-variant-numeric:normal;font-feature-settings:normal;text-align:start;writing-mode:lr-tb;text-anchor:start;stroke-width:0.26458332px"
         id="path3815" />
      <path
         d="m 109.7526,17.117399 h -0.7874 v -4.402666 h 0.7874 z m -0.39793,-5.198533 q -0.21167,0 -0.36407,-0.135467 -0.14393,-0.143933 -0.14393,-0.380999 0,-0.237067 0.14393,-0.372534 0.1524,-0.143933 0.36407,-0.143933 0.21167,0 0.3556,0.143933 0.1524,0.135467 0.1524,0.372534 0,0.237066 -0.1524,0.380999 -0.14393,0.135467 -0.3556,0.135467 z"
         style="font-style:normal;font-variant:normal;font-weight:normal;font-stretch:normal;font-size:8.46666622px;font-family:Ubuntu;-inkscape-font-specification:'Ubuntu, Normal';font-variant-ligatures:normal;font-variant-caps:normal;font-variant-numeric:normal;font-feature-settings:normal;text-align:start;writing-mode:lr-tb;text-anchor:start;stroke-width:0.26458332px"
         id="path3817" />
      <path
         d="m 112.83367,10.547266 q 0.34714,0 0.59267,0.0508 0.254,0.0508 0.3556,0.09313 l -0.14393,0.677333 q -0.1016,-0.0508 -0.28787,-0.09313 -0.18627,-0.0508 -0.4572,-0.0508 -0.55033,0 -0.77047,0.3048 -0.22013,0.296333 -0.22013,0.804333 v 0.381 h 1.69333 v 0.6604 h -1.69333 v 3.742266 h -0.7874 v -4.8006 q 0,-0.846666 0.41487,-1.303866 0.41486,-0.465667 1.30386,-0.465667 z"
         style="font-style:normal;font-variant:normal;font-weight:normal;font-stretch:normal;font-size:8.46666622px;font-family:Ubuntu;-inkscape-font-specification:'Ubuntu, Normal';font-variant-ligatures:normal;font-variant-caps:normal;font-variant-numeric:normal;font-feature-settings:normal;text-align:start;writing-mode:lr-tb;text-anchor:start;stroke-width:0.26458332px"
         id="path3819" />
    </g>
    <path
       style="fill:none;fill-rule:evenodd;stroke:#000000;stroke-width:0.26458332px;stroke-linecap:butt;stroke-linejoin:miter;stroke-opacity:1;marker-start:url(#marker5347)"
       d="m 2.6458333,48.291657 v 3.96875"
       id="path4875"
       inkscape:connector-curvature="0" />
    <path
       style="fill:none;fill-rule:evenodd;stroke:#000000;stroke-width:0.26458332px;stroke-linecap:butt;stroke-linejoin:miter;stroke-opacity:1;marker-start:url(#marker5289)"
       d="m 14.552083,48.291657 v 3.96875"
       id="path4877"
       inkscape:connector-curvature="0" />
    <path
       style="fill:none;fill-rule:evenodd;stroke:#000000;stroke-width:0.26458332px;stroke-linecap:butt;stroke-linejoin:miter;stroke-opacity:1;marker-start:url(#marker5405)"
       d="m 19.84375,48.291658 v 3.96875"
       id="path4879"
       inkscape:connector-curvature="0" />
    <path
       style="fill:none;fill-rule:evenodd;stroke:#000000;stroke-width:0.26458332px;stroke-linecap:butt;stroke-linejoin:miter;stroke-opacity:1;marker-start:url(#Arrow2Mstart)"
       d="m 19.579167,25.802075 v -3.96875"
       id="path4881"
       inkscape:connector-curvature="0" />
    <path
       style="fill:none;fill-rule:evenodd;stroke:#000000;stroke-width:0.26458332px;stroke-linecap:butt;stroke-linejoin:miter;stroke-opacity:1;marker-start:url(#marker5005)"
       d="m 48.947916,25.802075 v -3.96875"
       id="path4883"
       inkscape:connector-curvature="0" />
    <path
       style="opacity:0.23500001;fill:#000000;fill-opacity:1;fill-rule:evenodd;stroke:none;stroke-width:0.26499999;stroke-linecap:square;stroke-miterlimit:4;stroke-dasharray:none;stroke-dashoffset:0;stroke-opacity:1;paint-order:normal"
       d="m 1.0583337,42.735416 h 3.7041678 c 0.7328955,0 1.3229161,0.590021 1.3229161,1.322916 V 44.5875 c 0,0.732895 -0.5900206,1.322916 -1.3229161,1.322916 H 1.0583337 c -0.73289549,0 -1.32291604,-0.590021 -1.32291604,-1.322916 v -0.529168 c 0,-0.732895 0.59002055,-1.322916 1.32291604,-1.322916 z"
       id="rect5485" />
    <path
       style="opacity:0.23500001;fill:#000000;fill-opacity:1;fill-rule:evenodd;stroke:none;stroke-width:0.26499999;stroke-linecap:square;stroke-miterlimit:4;stroke-dasharray:none;stroke-dashoffset:0;stroke-opacity:1;paint-order:normal"
       d="m 11.906251,42.735416 h 5.027083 c 0.732896,0 1.322917,0.590021 1.322917,1.322917 v 0.529166 c 0,0.732896 -0.590021,1.322917 -1.322917,1.322917 h -5.027083 c -0.732896,0 -1.322917,-0.590021 -1.322917,-1.322917 v -0.529166 c 0,-0.732896 0.590021,-1.322917 1.322917,-1.322917 z"
       id="rect5487" />
    <path
       style="opacity:0.23500001;fill:#000000;fill-opacity:1;fill-rule:evenodd;stroke:none;stroke-width:0.26499999;stroke-linecap:square;stroke-miterlimit:4;stroke-dasharray:none;stroke-dashoffset:0;stroke-opacity:1;paint-order:normal"
       d="m 48.683333,27.389582 h 0.793745 c 0.732895,0 1.322916,0.59002 1.322916,1.322916 v 4.497918 c 0,0.732896 -0.590021,1.322916 -1.322916,1.322916 h -0.793745 c -0.732896,0 -1.322917,-0.59002 -1.322917,-1.322916 v -4.497918 c 0,-0.732896 0.590021,-1.322916 1.322917,-1.322916 z"
       id="rect5493" />
    <path
       style="opacity:0.23500001;fill:#000000;fill-opacity:1;fill-rule:evenodd;stroke:none;stroke-width:0.26499999;stroke-linecap:square;stroke-miterlimit:4;stroke-dasharray:none;stroke-dashoffset:0;stroke-opacity:1;paint-order:normal"
       d="m 19.05,42.735416 h 3.968751 c 0.732896,0 1.322917,0.590021 1.322917,1.322917 v 0.529166 c 0,0.732896 -0.590021,1.322917 -1.322917,1.322917 H 19.05 c -0.732896,0 -1.322917,-0.590021 -1.322917,-1.322917 v -0.529166 c 0,-0.732896 0.590021,-1.322917 1.322917,-1.322917 z"
       id="rect5487-6" />
    <path
       style="opacity:0.23500001;fill:#000000;fill-opacity:1;fill-rule:evenodd;stroke:none;stroke-width:0.26499999;stroke-linecap:square;stroke-miterlimit:4;stroke-dasharray:none;stroke-dashoffset:0;stroke-opacity:1;paint-order:normal"
       d="m 18.520835,27.125 h 2.910416 c 0.732896,0 1.322917,0.590021 1.322917,1.322917 v 0.529166 c 0,0.732895 -0.590021,1.322916 -1.322917,1.322916 h -2.910416 c -0.732896,0 -1.322917,-0.590021 -1.322917,-1.322916 v -0.529166 c 0,-0.732896 0.590021,-1.322917 1.322917,-1.322917 z"
       id="rect5487-6-9" />
  </g>
</svg>
