<?xml version="1.0" encoding="UTF-8" standalone="no"?>
<!-- Created with Inkscape (http://www.inkscape.org/) -->

<svg
   xmlns:dc="http://purl.org/dc/elements/1.1/"
   xmlns:cc="http://creativecommons.org/ns#"
   xmlns:rdf="http://www.w3.org/1999/02/22-rdf-syntax-ns#"
   xmlns:svg="http://www.w3.org/2000/svg"
   xmlns="http://www.w3.org/2000/svg"
   xmlns:sodipodi="http://sodipodi.sourceforge.net/DTD/sodipodi-0.dtd"
   xmlns:inkscape="http://www.inkscape.org/namespaces/inkscape"
   width="456.44501"
   height="165.54668"
   viewBox="0 0 120.76773 43.800892"
   version="1.1"
   id="svg8"
   inkscape:version="0.92.0 unknown"
   sodipodi:docname="font_serif_sansserif.svg">
  <defs
     id="defs2">
    <marker
       inkscape:isstock="true"
       style="overflow:visible"
       id="marker5405"
       refX="0"
       refY="0"
       orient="auto"
       inkscape:stockid="Arrow2Mstart">
      <path
         transform="scale(0.6)"
         d="M 8.7185878,4.0337352 -2.2072895,0.01601326 8.7185884,-4.0017078 c -1.7454984,2.3720609 -1.7354408,5.6174519 -6e-7,8.035443 z"
         style="fill:#000000;fill-opacity:1;fill-rule:evenodd;stroke:#000000;stroke-width:0.625;stroke-linejoin:round;stroke-opacity:1"
         id="path5403"
         inkscape:connector-curvature="0" />
    </marker>
    <marker
       inkscape:isstock="true"
       style="overflow:visible"
       id="marker5347"
       refX="0"
       refY="0"
       orient="auto"
       inkscape:stockid="Arrow2Mstart">
      <path
         transform="scale(0.6)"
         d="M 8.7185878,4.0337352 -2.2072895,0.01601326 8.7185884,-4.0017078 c -1.7454984,2.3720609 -1.7354408,5.6174519 -6e-7,8.035443 z"
         style="fill:#000000;fill-opacity:1;fill-rule:evenodd;stroke:#000000;stroke-width:0.625;stroke-linejoin:round;stroke-opacity:1"
         id="path5345"
         inkscape:connector-curvature="0" />
    </marker>
    <marker
       inkscape:stockid="Arrow2Mstart"
       orient="auto"
       refY="0"
       refX="0"
       id="marker5289"
       style="overflow:visible"
       inkscape:isstock="true"
       inkscape:collect="always">
      <path
         id="path5287"
         style="fill:#000000;fill-opacity:1;fill-rule:evenodd;stroke:#000000;stroke-width:0.625;stroke-linejoin:round;stroke-opacity:1"
         d="M 8.7185878,4.0337352 -2.2072895,0.01601326 8.7185884,-4.0017078 c -1.7454984,2.3720609 -1.7354408,5.6174519 -6e-7,8.035443 z"
         transform="scale(0.6)"
         inkscape:connector-curvature="0" />
    </marker>
    <marker
       inkscape:isstock="true"
       style="overflow:visible"
       id="marker5223"
       refX="0"
       refY="0"
       orient="auto"
       inkscape:stockid="Arrow2Mend">
      <path
         transform="scale(-0.6)"
         d="M 8.7185878,4.0337352 -2.2072895,0.01601326 8.7185884,-4.0017078 c -1.7454984,2.3720609 -1.7354408,5.6174519 -6e-7,8.035443 z"
         style="fill:#000000;fill-opacity:1;fill-rule:evenodd;stroke:#000000;stroke-width:0.625;stroke-linejoin:round;stroke-opacity:1"
         id="path5221"
         inkscape:connector-curvature="0" />
    </marker>
    <marker
       inkscape:isstock="true"
       style="overflow:visible"
       id="marker5089"
       refX="0"
       refY="0"
       orient="auto"
       inkscape:stockid="Arrow2Mend">
      <path
         transform="scale(-0.6)"
         d="M 8.7185878,4.0337352 -2.2072895,0.01601326 8.7185884,-4.0017078 c -1.7454984,2.3720609 -1.7354408,5.6174519 -6e-7,8.035443 z"
         style="fill:#000000;fill-opacity:1;fill-rule:evenodd;stroke:#000000;stroke-width:0.625;stroke-linejoin:round;stroke-opacity:1"
         id="path5087"
         inkscape:connector-curvature="0" />
    </marker>
    <marker
       inkscape:isstock="true"
       style="overflow:visible"
       id="marker5005"
       refX="0"
       refY="0"
       orient="auto"
       inkscape:stockid="Arrow2Mstart">
      <path
         transform="scale(0.6)"
         d="M 8.7185878,4.0337352 -2.2072895,0.01601326 8.7185884,-4.0017078 c -1.7454984,2.3720609 -1.7354408,5.6174519 -6e-7,8.035443 z"
         style="fill:#000000;fill-opacity:1;fill-rule:evenodd;stroke:#000000;stroke-width:0.625;stroke-linejoin:round;stroke-opacity:1"
         id="path5003"
         inkscape:connector-curvature="0" />
    </marker>
    <marker
       inkscape:stockid="Arrow2Mstart"
       orient="auto"
       refY="0"
       refX="0"
       id="Arrow2Mstart"
       style="overflow:visible"
       inkscape:isstock="true"
       inkscape:collect="always">
      <path
         id="path4575"
         style="fill:#000000;fill-opacity:1;fill-rule:evenodd;stroke:#000000;stroke-width:0.625;stroke-linejoin:round;stroke-opacity:1"
         d="M 8.7185878,4.0337352 -2.2072895,0.01601326 8.7185884,-4.0017078 c -1.7454984,2.3720609 -1.7354408,5.6174519 -6e-7,8.035443 z"
         transform="scale(0.6)"
         inkscape:connector-curvature="0" />
    </marker>
    <marker
       inkscape:isstock="true"
       style="overflow:visible"
       id="marker4969"
       refX="0"
       refY="0"
       orient="auto"
       inkscape:stockid="Arrow2Lend">
      <path
         transform="matrix(-1.1,0,0,-1.1,-1.1,0)"
         d="M 8.7185878,4.0337352 -2.2072895,0.01601326 8.7185884,-4.0017078 c -1.7454984,2.3720609 -1.7354408,5.6174519 -6e-7,8.035443 z"
         style="fill:#000000;fill-opacity:1;fill-rule:evenodd;stroke:#000000;stroke-width:0.625;stroke-linejoin:round;stroke-opacity:1"
         id="path4967"
         inkscape:connector-curvature="0" />
    </marker>
    <marker
       inkscape:isstock="true"
       style="overflow:visible"
       id="marker4907"
       refX="0"
       refY="0"
       orient="auto"
       inkscape:stockid="Arrow2Lend">
      <path
         transform="matrix(-1.1,0,0,-1.1,-1.1,0)"
         d="M 8.7185878,4.0337352 -2.2072895,0.01601326 8.7185884,-4.0017078 c -1.7454984,2.3720609 -1.7354408,5.6174519 -6e-7,8.035443 z"
         style="fill:#000000;fill-opacity:1;fill-rule:evenodd;stroke:#000000;stroke-width:0.625;stroke-linejoin:round;stroke-opacity:1"
         id="path4905"
         inkscape:connector-curvature="0" />
    </marker>
  </defs>
  <sodipodi:namedview
     id="base"
     pagecolor="#ffffff"
     bordercolor="#666666"
     borderopacity="1.0"
     inkscape:pageopacity="0.0"
     inkscape:pageshadow="2"
     inkscape:zoom="1.979899"
     inkscape:cx="125.80601"
     inkscape:cy="4.6952761"
     inkscape:document-units="mm"
     inkscape:current-layer="layer1"
     showgrid="true"
     inkscape:snap-text-baseline="true"
     inkscape:snap-center="true"
     showguides="true"
     inkscape:guide-bbox="true"
     inkscape:lockguides="false"
     units="px"
     fit-margin-top="10"
     fit-margin-left="0"
     fit-margin-right="0"
     fit-margin-bottom="0"
     inkscape:window-width="1855"
     inkscape:window-height="1176"
     inkscape:window-x="65"
     inkscape:window-y="24"
     inkscape:window-maximized="1">
    <inkscape:grid
       type="xygrid"
       id="grid3680"
       originx="0.26458331"
       originy="-244.73959" />
    <sodipodi:guide
       position="119.32708,11.906255"
       orientation="0,1"
       id="guide3704"
       inkscape:locked="false" />
    <sodipodi:guide
       position="96.837492,27.781253"
       orientation="0,1"
       id="guide3710"
       inkscape:locked="false" />
    <sodipodi:guide
       position="50.535412,-41.010412"
       orientation="1,0"
       id="guide3712"
       inkscape:locked="false" />
    <sodipodi:guide
       position="0.26458219,-50.270822"
       orientation="1,0"
       id="guide3714"
       inkscape:locked="false" />
    <sodipodi:guide
       position="70.379162,-59.531252"
       orientation="1,0"
       id="guide3716"
       inkscape:locked="false" />
    <sodipodi:guide
       position="120.64999,-50.270822"
       orientation="1,0"
       id="guide3718"
       inkscape:locked="false" />
    <sodipodi:guide
       position="25.399997,23.812503"
       orientation="1,0"
       id="guide3720"
       inkscape:locked="false" />
    <sodipodi:guide
       position="95.514576,10.583335"
       orientation="1,0"
       id="guide3722"
       inkscape:locked="false" />
    <sodipodi:guide
       position="14.816665,38.364583"
       orientation="0,1"
       id="guide3724"
       inkscape:locked="false" />
    <sodipodi:guide
       position="59.795831,56.885408"
       orientation="1,0"
       id="guide5828"
       inkscape:locked="false" />
    <sodipodi:guide
       position="58.472911,15.874994"
       orientation="0,1"
       id="guide54"
       inkscape:locked="false" />
  </sodipodi:namedview>
  <metadata
     id="metadata5">
    <rdf:RDF>
      <cc:Work
         rdf:about="">
        <dc:format>image/svg+xml</dc:format>
        <dc:type
           rdf:resource="http://purl.org/dc/dcmitype/StillImage" />
        <dc:title />
      </cc:Work>
    </rdf:RDF>
  </metadata>
  <g
     inkscape:label="Layer 1"
     inkscape:groupmode="layer"
     id="layer1"
     transform="translate(0.26458234,-8.4595172)">
    <g
       aria-label="ABC"
       style="font-style:normal;font-variant:normal;font-weight:normal;font-stretch:normal;font-size:10.01215363px;line-height:12.51519203px;font-family:Ubuntu;-inkscape-font-specification:'Ubuntu, Normal';text-align:start;letter-spacing:0px;word-spacing:0px;writing-mode:lr-tb;text-anchor:start;fill:#000000;fill-opacity:1;stroke:none;stroke-width:0.50060767px;stroke-linecap:butt;stroke-linejoin:miter;stroke-opacity:1"
       id="text3684">
      <path
         d="m 70.30837,45.223808 6.788561,-17.676785 h 2.520087 l 7.234701,17.676785 H 84.186937 L 82.125048,39.87013 h -7.391453 l -1.941311,5.353678 z m 5.100464,-7.258816 h 5.992744 l -1.844849,-4.895481 q -0.844049,-2.230699 -1.254015,-3.665581 -0.337619,1.700154 -0.952569,3.376193 z"
         style="font-style:normal;font-variant:normal;font-weight:normal;font-stretch:normal;font-size:24.69444466px;font-family:Arial;-inkscape-font-specification:'Arial, Normal';font-variant-ligatures:normal;font-variant-caps:normal;font-variant-numeric:normal;font-feature-settings:normal;text-align:start;writing-mode:lr-tb;text-anchor:start;stroke-width:0.50060767px"
         id="path3725" />
      <path
         d="M 88.648336,45.223808 V 27.547023 h 6.631809 q 2.025716,0 3.243557,0.542603 1.229899,0.530544 1.917198,1.651923 0.69935,1.109321 0.69935,2.327162 0,1.133436 -0.61495,2.134237 -0.614947,1.0008 -1.856904,1.61575 1.603694,0.470255 2.459794,1.603691 0.86817,1.133437 0.86817,2.67684 0,1.241957 -0.53055,2.315104 -0.51848,1.061089 -1.29018,1.639865 -0.771706,0.578776 -1.941316,0.880222 -1.157552,0.289388 -2.845649,0.289388 z m 2.33922,-10.249159 h 3.822333 q 1.555461,0 2.230699,-0.204983 0.89228,-0.265272 1.33842,-0.880222 0.458198,-0.61495 0.458198,-1.543403 0,-0.880222 -0.422024,-1.543403 -0.422025,-0.675238 -1.205784,-0.916395 -0.783759,-0.253214 -2.688897,-0.253214 h -3.532945 z m 0,8.163154 h 4.401109 q 1.133437,0 1.591634,-0.0844 0.807875,-0.144694 1.350478,-0.482313 0.542602,-0.33762 0.892279,-0.976685 0.349678,-0.651123 0.349678,-1.495171 0,-0.988743 -0.506429,-1.712213 -0.506429,-0.735528 -1.410767,-1.024916 -0.89228,-0.301446 -2.580377,-0.301446 h -4.087605 z"
         style="font-style:normal;font-variant:normal;font-weight:normal;font-stretch:normal;font-size:24.69444466px;font-family:Arial;-inkscape-font-specification:'Arial, Normal';font-variant-ligatures:normal;font-variant-caps:normal;font-variant-numeric:normal;font-feature-settings:normal;text-align:start;writing-mode:lr-tb;text-anchor:start;stroke-width:0.50060767px"
         id="path3727" />
      <path
         d="m 117.85241,39.026081 2.33922,0.590834 q -0.73553,2.881823 -2.65272,4.40111 -1.90514,1.507229 -4.66639,1.507229 -2.8577,0 -4.65432,-1.157552 -1.78456,-1.16961 -2.72507,-3.376194 -0.92845,-2.206583 -0.92845,-4.738728 0,-2.761244 1.04903,-4.811076 1.06109,-2.06189 3.0024,-3.122979 1.95337,-1.073148 4.29259,-1.073148 2.65272,0 4.4614,1.350478 1.80867,1.350477 2.52008,3.798218 l -2.30304,0.542602 q -0.61495,-1.929253 -1.78456,-2.809475 -1.16961,-0.880222 -2.94211,-0.880222 -2.03778,0 -3.41237,0.976684 -1.36254,0.976685 -1.9172,2.628608 -0.55466,1.639866 -0.55466,3.388252 0,2.254815 0.65113,3.942912 0.66318,1.676039 2.04983,2.508029 1.38665,0.831991 3.0024,0.831991 1.96543,0 3.32796,-1.133437 1.36254,-1.133436 1.84485,-3.364136 z"
         style="font-style:normal;font-variant:normal;font-weight:normal;font-stretch:normal;font-size:24.69444466px;font-family:Arial;-inkscape-font-specification:'Arial, Normal';font-variant-ligatures:normal;font-variant-caps:normal;font-variant-numeric:normal;font-feature-settings:normal;text-align:start;writing-mode:lr-tb;text-anchor:start;stroke-width:0.50060767px"
         id="path3729" />
    </g>
    <g
       aria-label="ABC"
       style="font-style:normal;font-variant:normal;font-weight:normal;font-stretch:normal;font-size:9.23060513px;line-height:11.53825665px;font-family:Ubuntu;-inkscape-font-specification:'Ubuntu, Normal';text-align:start;letter-spacing:0px;word-spacing:0px;writing-mode:lr-tb;text-anchor:start;fill:#000000;fill-opacity:1;stroke:none;stroke-width:0.46153024px;stroke-linecap:butt;stroke-linejoin:miter;stroke-opacity:1"
       id="text3684-9">
      <path
         d="M 11.359339,39.08637 H 5.0289763 l -1.1093207,2.580377 q -0.4099664,0.952569 -0.4099664,1.422824 0,0.373793 0.3496772,0.663181 0.361735,0.27733 1.5434028,0.361735 v 0.44614 H 0.25407395 v -0.44614 Q 1.2789899,43.93362 1.5804357,43.644232 2.1953853,43.065456 2.942971,41.292954 L 8.694558,27.836411 H 9.1165822 L 14.80788,41.437648 q 0.687297,1.639865 1.241957,2.134237 0.566718,0.482313 1.567518,0.542602 v 0.44614 h -6.450941 v -0.44614 q 0.976685,-0.04823 1.314304,-0.325561 0.349677,-0.277331 0.349677,-0.675239 0,-0.530545 -0.482313,-1.676039 z M 11.02172,38.19409 8.2484181,31.586397 5.4027692,38.19409 Z"
         style="font-style:normal;font-variant:normal;font-weight:normal;font-stretch:normal;font-size:24.69444466px;font-family:'Times New Roman';-inkscape-font-specification:'Times New Roman, Normal';font-variant-ligatures:normal;font-variant-caps:normal;font-variant-numeric:normal;font-feature-settings:normal;text-align:start;writing-mode:lr-tb;text-anchor:start;stroke-width:0.46153024px"
         id="path3732" />
      <path
         d="m 29.313454,36.216606 q 1.700155,0.361735 2.544203,1.157552 1.16961,1.10932 1.16961,2.713012 0,1.217842 -0.771701,2.33922 -0.771702,1.109321 -2.122179,1.627808 -1.33842,0.506429 -4.099664,0.506429 h -7.717014 v -0.44614 h 0.61495 q 1.024916,0 1.471056,-0.651123 0.27733,-0.422024 0.27733,-1.796617 V 31.104084 q 0,-1.519287 -0.349677,-1.917196 -0.470256,-0.530544 -1.398709,-0.530544 h -0.61495 v -0.44614 H 25.3826 q 1.977485,0 3.171211,0.289388 1.808675,0.434082 2.761244,1.543402 0.952569,1.097263 0.952569,2.532146 0,1.229899 -0.747586,2.206583 -0.747586,0.964627 -2.206584,1.434883 z m -6.318305,-0.651123 q 0.44614,0.0844 1.012858,0.132636 0.578776,0.03617 1.266073,0.03617 1.760444,0 2.640665,-0.373793 0.89228,-0.38585 1.362536,-1.16961 0.470255,-0.783759 0.470255,-1.712212 0,-1.434882 -1.16961,-2.44774 -1.16961,-1.012858 -3.412367,-1.012858 -1.205783,0 -2.17041,0.265272 z m 0,7.813476 q 1.398709,0.325562 2.761244,0.325562 2.182468,0 3.327962,-0.976685 1.145495,-0.988742 1.145495,-2.435682 0,-0.952569 -0.518487,-1.832791 -0.518487,-0.880222 -1.688097,-1.386651 -1.16961,-0.506429 -2.89388,-0.506429 -0.747586,0 -1.278131,0.02412 -0.530544,0.02412 -0.856106,0.0844 z"
         style="font-style:normal;font-variant:normal;font-weight:normal;font-stretch:normal;font-size:24.69444466px;font-family:'Times New Roman';-inkscape-font-specification:'Times New Roman, Normal';font-variant-ligatures:normal;font-variant-caps:normal;font-variant-numeric:normal;font-feature-settings:normal;text-align:start;writing-mode:lr-tb;text-anchor:start;stroke-width:0.46153024px"
         id="path3734" />
      <path
         d="m 49.269172,27.836411 0.373793,5.558661 h -0.373793 q -0.747586,-2.495971 -2.134237,-3.593234 -1.386651,-1.097263 -3.327962,-1.097263 -1.627808,0 -2.942112,0.83199 -1.314304,0.819933 -2.073947,2.628608 -0.747586,1.808675 -0.747586,4.497573 0,2.218641 0.711412,3.846449 0.711413,1.627807 2.134237,2.495971 1.434882,0.868164 3.267673,0.868164 1.591634,0 2.809475,-0.675238 1.217842,-0.687297 2.67684,-2.713013 l 0.373793,0.241157 q -1.2299,2.182468 -2.869765,3.195326 -1.639866,1.012858 -3.894681,1.012858 -4.06349,0 -6.294189,-3.014459 -1.663981,-2.242757 -1.663981,-5.281331 0,-2.447741 1.097263,-4.497572 1.097263,-2.049832 3.014458,-3.171211 1.929254,-1.133436 4.208185,-1.133436 1.772501,0 3.496771,0.868164 0.506429,0.265272 0.723471,0.265272 0.325561,0 0.566718,-0.229099 0.313503,-0.325561 0.44614,-0.904337 z"
         style="font-style:normal;font-variant:normal;font-weight:normal;font-stretch:normal;font-size:24.69444466px;font-family:'Times New Roman';-inkscape-font-specification:'Times New Roman, Normal';font-variant-ligatures:normal;font-variant-caps:normal;font-variant-numeric:normal;font-feature-settings:normal;text-align:start;writing-mode:lr-tb;text-anchor:start;stroke-width:0.46153024px"
         id="path3736" />
    </g>
    <g
       aria-label="Serif"
       style="font-style:normal;font-variant:normal;font-weight:normal;font-stretch:normal;font-size:5.29166651px;line-height:6.61458302px;font-family:Ubuntu;-inkscape-font-specification:'Ubuntu, Normal';text-align:start;letter-spacing:0px;word-spacing:0px;writing-mode:lr-tb;text-anchor:start;fill:#000000;fill-opacity:1;stroke:none;stroke-width:0.26458332px;stroke-linecap:butt;stroke-linejoin:miter;stroke-opacity:1"
       id="text3708">
      <path
         d="m 18.089165,16.533199 q 1.286933,0 1.286933,-0.880533 0,-0.270933 -0.118533,-0.4572 -0.110067,-0.194733 -0.3048,-0.3302 -0.194734,-0.143933 -0.448734,-0.245533 -0.245533,-0.1016 -0.524933,-0.2032 -0.321733,-0.110067 -0.6096,-0.245534 -0.287867,-0.143933 -0.499533,-0.3302 -0.211667,-0.194733 -0.338667,-0.4572 -0.118533,-0.262466 -0.118533,-0.635 0,-0.770466 0.524933,-1.202266 0.524933,-0.4318 1.4478,-0.4318 0.5334,0 0.9652,0.118533 0.440267,0.110067 0.643467,0.245534 l -0.262467,0.668866 q -0.1778,-0.110067 -0.5334,-0.211667 -0.347133,-0.110066 -0.8128,-0.110066 -0.237067,0 -0.440267,0.0508 -0.2032,0.0508 -0.3556,0.1524 -0.1524,0.1016 -0.245533,0.262466 -0.08467,0.1524 -0.08467,0.364067 0,0.237067 0.09313,0.397933 0.09313,0.160867 0.262466,0.287867 0.169334,0.118533 0.389467,0.220133 0.2286,0.1016 0.499533,0.2032 0.381,0.1524 0.694267,0.3048 0.321733,0.1524 0.550333,0.364067 0.237067,0.211667 0.364067,0.508 0.127,0.287867 0.127,0.702733 0,0.770467 -0.567267,1.185334 -0.5588,0.414866 -1.583266,0.414866 -0.347134,0 -0.643467,-0.0508 -0.287867,-0.04233 -0.516467,-0.1016 -0.2286,-0.06773 -0.397933,-0.135466 -0.160867,-0.0762 -0.254,-0.127 l 0.245533,-0.677334 q 0.194734,0.110067 0.592667,0.245534 0.397933,0.135466 0.973667,0.135466 z"
         style="font-style:normal;font-variant:normal;font-weight:normal;font-stretch:normal;font-size:8.46666622px;font-family:Ubuntu;-inkscape-font-specification:'Ubuntu, Normal';font-variant-ligatures:normal;font-variant-caps:normal;font-variant-numeric:normal;font-feature-settings:normal;text-align:start;writing-mode:lr-tb;text-anchor:start;stroke-width:0.26458332px"
         id="path3760" />
      <path
         d="m 20.927614,14.924533 q 0,-0.5842 0.169334,-1.016 0.169333,-0.440267 0.448733,-0.728134 0.2794,-0.287866 0.643467,-0.4318 0.364066,-0.143933 0.745066,-0.143933 0.889,0 1.363133,0.5588 0.474134,0.550333 0.474134,1.684867 0,0.0508 0,0.135466 0,0.0762 -0.0085,0.143934 h -3.014133 q 0.0508,0.6858 0.397933,1.0414 0.347134,0.3556 1.083734,0.3556 0.414866,0 0.694266,-0.06773 0.287867,-0.0762 0.4318,-0.143933 l 0.110067,0.6604 q -0.143934,0.0762 -0.508,0.160867 -0.3556,0.08467 -0.8128,0.08467 -0.575733,0 -0.999067,-0.169333 -0.414866,-0.1778 -0.6858,-0.4826 -0.270933,-0.3048 -0.4064,-0.719667 -0.127,-0.423333 -0.127,-0.922866 z m 3.0226,-0.4318 q 0.0085,-0.5334 -0.270933,-0.872067 -0.270933,-0.347133 -0.753533,-0.347133 -0.270934,0 -0.4826,0.110066 -0.2032,0.1016 -0.347134,0.270934 -0.143933,0.169333 -0.2286,0.389466 -0.0762,0.220134 -0.1016,0.448734 z"
         style="font-style:normal;font-variant:normal;font-weight:normal;font-stretch:normal;font-size:8.46666622px;font-family:Ubuntu;-inkscape-font-specification:'Ubuntu, Normal';font-variant-ligatures:normal;font-variant-caps:normal;font-variant-numeric:normal;font-feature-settings:normal;text-align:start;writing-mode:lr-tb;text-anchor:start;stroke-width:0.26458332px"
         id="path3762" />
      <path
         d="m 27.528174,12.621599 q 0.1016,0 0.2286,0.01693 0.135467,0.0085 0.262467,0.03387 0.127,0.01693 0.2286,0.04233 0.110066,0.01693 0.160866,0.03387 l -0.135466,0.6858 q -0.09313,-0.03387 -0.313267,-0.0762 -0.211667,-0.0508 -0.550333,-0.0508 -0.220134,0 -0.440267,0.0508 -0.211667,0.04233 -0.2794,0.05927 v 3.699933 h -0.7874 v -4.2164 q 0.2794,-0.1016 0.694267,-0.186266 0.414866,-0.09313 0.931333,-0.09313 z"
         style="font-style:normal;font-variant:normal;font-weight:normal;font-stretch:normal;font-size:8.46666622px;font-family:Ubuntu;-inkscape-font-specification:'Ubuntu, Normal';font-variant-ligatures:normal;font-variant-caps:normal;font-variant-numeric:normal;font-feature-settings:normal;text-align:start;writing-mode:lr-tb;text-anchor:start;stroke-width:0.26458332px"
         id="path3764" />
      <path
         d="m 29.964193,17.117399 h -0.787399 v -4.402666 h 0.787399 z M 29.56626,11.918866 q -0.211666,0 -0.364066,-0.135467 -0.143934,-0.143933 -0.143934,-0.380999 0,-0.237067 0.143934,-0.372534 0.1524,-0.143933 0.364066,-0.143933 0.211667,0 0.3556,0.143933 0.1524,0.135467 0.1524,0.372534 0,0.237066 -0.1524,0.380999 -0.143933,0.135467 -0.3556,0.135467 z"
         style="font-style:normal;font-variant:normal;font-weight:normal;font-stretch:normal;font-size:8.46666622px;font-family:Ubuntu;-inkscape-font-specification:'Ubuntu, Normal';font-variant-ligatures:normal;font-variant-caps:normal;font-variant-numeric:normal;font-feature-settings:normal;text-align:start;writing-mode:lr-tb;text-anchor:start;stroke-width:0.26458332px"
         id="path3766" />
      <path
         d="m 33.045266,10.547266 q 0.347133,0 0.592667,0.0508 0.254,0.0508 0.3556,0.09313 l -0.143934,0.677333 q -0.1016,-0.0508 -0.287866,-0.09313 -0.186267,-0.0508 -0.4572,-0.0508 -0.550334,0 -0.770467,0.3048 -0.220133,0.296333 -0.220133,0.804333 v 0.381 h 1.693333 v 0.6604 h -1.693333 v 3.742266 h -0.7874 v -4.8006 q 0,-0.846666 0.414866,-1.303866 0.414867,-0.465667 1.303867,-0.465667 z"
         style="font-style:normal;font-variant:normal;font-weight:normal;font-stretch:normal;font-size:8.46666622px;font-family:Ubuntu;-inkscape-font-specification:'Ubuntu, Normal';font-variant-ligatures:normal;font-variant-caps:normal;font-variant-numeric:normal;font-feature-settings:normal;text-align:start;writing-mode:lr-tb;text-anchor:start;stroke-width:0.26458332px"
         id="path3768" />
    </g>
    <g
       aria-label="Sans-serif"
       style="font-style:normal;font-variant:normal;font-weight:normal;font-stretch:normal;font-size:5.29166651px;line-height:6.61458349px;font-family:Ubuntu;-inkscape-font-specification:'Ubuntu, Normal';text-align:start;letter-spacing:0px;word-spacing:0px;writing-mode:lr-tb;text-anchor:start;fill:#000000;fill-opacity:1;stroke:none;stroke-width:0.26458332px;stroke-linecap:butt;stroke-linejoin:miter;stroke-opacity:1"
       id="text3708-4">
      <path
         d="m 78.529919,16.533199 q 1.286933,0 1.286933,-0.880533 0,-0.270933 -0.118533,-0.4572 -0.110067,-0.194733 -0.3048,-0.3302 -0.194734,-0.143933 -0.448734,-0.245533 -0.245533,-0.1016 -0.524933,-0.2032 -0.321733,-0.110067 -0.6096,-0.245534 -0.287867,-0.143933 -0.499533,-0.3302 -0.211667,-0.194733 -0.338667,-0.4572 -0.118533,-0.262466 -0.118533,-0.635 0,-0.770466 0.524933,-1.202266 0.524933,-0.4318 1.4478,-0.4318 0.5334,0 0.9652,0.118533 0.440267,0.110067 0.643466,0.245534 l -0.262466,0.668866 q -0.1778,-0.110067 -0.5334,-0.211667 -0.347133,-0.110066 -0.8128,-0.110066 -0.237067,0 -0.440267,0.0508 -0.2032,0.0508 -0.3556,0.1524 -0.1524,0.1016 -0.245533,0.262466 -0.08467,0.1524 -0.08467,0.364067 0,0.237067 0.09313,0.397933 0.09313,0.160867 0.262466,0.287867 0.169334,0.118533 0.389467,0.220133 0.2286,0.1016 0.499533,0.2032 0.381,0.1524 0.694267,0.3048 0.321733,0.1524 0.550333,0.364067 0.237067,0.211667 0.364067,0.508 0.127,0.287867 0.127,0.702733 0,0.770467 -0.567267,1.185334 -0.5588,0.414866 -1.583266,0.414866 -0.347134,0 -0.643467,-0.0508 -0.287867,-0.04233 -0.516467,-0.1016 -0.2286,-0.06773 -0.397933,-0.135466 -0.160867,-0.0762 -0.254,-0.127 l 0.245533,-0.677334 q 0.194734,0.110067 0.592667,0.245534 0.397933,0.135466 0.973667,0.135466 z"
         style="font-style:normal;font-variant:normal;font-weight:normal;font-stretch:normal;font-size:8.46666622px;font-family:Ubuntu;-inkscape-font-specification:'Ubuntu, Normal';font-variant-ligatures:normal;font-variant-caps:normal;font-variant-numeric:normal;font-feature-settings:normal;text-align:start;writing-mode:lr-tb;text-anchor:start;stroke-width:0.26458332px"
         id="path3739" />
      <path
         d="m 83.104035,16.550133 q 0.2794,0 0.491066,-0.0085 0.220134,-0.01693 0.364067,-0.0508 v -1.312333 q -0.08467,-0.04233 -0.2794,-0.06773 -0.186267,-0.03387 -0.4572,-0.03387 -0.1778,0 -0.381,0.0254 -0.194733,0.0254 -0.364066,0.110066 -0.160867,0.0762 -0.270934,0.220134 -0.110066,0.135466 -0.110066,0.364066 0,0.423334 0.270933,0.592667 0.270933,0.160867 0.7366,0.160867 z m -0.06773,-3.945467 q 0.474134,0 0.795867,0.127 0.3302,0.118533 0.524933,0.347133 0.2032,0.220134 0.287867,0.5334 0.08467,0.3048 0.08467,0.677334 v 2.751666 q -0.1016,0.01693 -0.287867,0.0508 -0.1778,0.0254 -0.4064,0.0508 -0.2286,0.0254 -0.499533,0.04233 -0.262467,0.0254 -0.524934,0.0254 -0.372533,0 -0.685799,-0.0762 -0.313267,-0.0762 -0.541867,-0.237067 -0.2286,-0.169333 -0.3556,-0.440267 -0.127,-0.270933 -0.127,-0.651933 0,-0.364067 0.143933,-0.626533 0.1524,-0.262467 0.4064,-0.423334 0.254,-0.160866 0.592667,-0.237066 0.338666,-0.0762 0.7112,-0.0762 0.118533,0 0.245533,0.01693 0.127,0.0085 0.237067,0.03387 0.118533,0.01693 0.2032,0.03387 0.08467,0.01693 0.118533,0.0254 v -0.220133 q 0,-0.194733 -0.04233,-0.381 -0.04233,-0.194733 -0.1524,-0.338667 -0.110067,-0.1524 -0.3048,-0.237066 -0.186267,-0.09313 -0.491067,-0.09313 -0.389466,0 -0.6858,0.05927 -0.287866,0.0508 -0.4318,0.110067 l -0.09313,-0.651934 q 0.1524,-0.06773 0.508,-0.127 0.3556,-0.06773 0.770466,-0.06773 z"
         style="font-style:normal;font-variant:normal;font-weight:normal;font-stretch:normal;font-size:8.46666622px;font-family:Ubuntu;-inkscape-font-specification:'Ubuntu, Normal';font-variant-ligatures:normal;font-variant-caps:normal;font-variant-numeric:normal;font-feature-settings:normal;text-align:start;writing-mode:lr-tb;text-anchor:start;stroke-width:0.26458332px"
         id="path3741" />
      <path
         d="m 86.029136,12.841733 q 0.270933,-0.06773 0.719667,-0.143934 0.448733,-0.0762 1.032933,-0.0762 0.524933,0 0.872067,0.1524 0.347133,0.143934 0.550333,0.414867 0.211667,0.262467 0.296333,0.635 0.08467,0.372533 0.08467,0.821267 v 2.472266 h -0.7874 v -2.302933 q 0,-0.4064 -0.05927,-0.694267 -0.0508,-0.287866 -0.1778,-0.465666 -0.127,-0.1778 -0.338666,-0.254 -0.211667,-0.08467 -0.524934,-0.08467 -0.127,0 -0.262466,0.0085 -0.135467,0.0085 -0.262467,0.0254 -0.118533,0.0085 -0.220133,0.0254 -0.09313,0.01693 -0.135467,0.0254 v 3.716866 h -0.7874 z"
         style="font-style:normal;font-variant:normal;font-weight:normal;font-stretch:normal;font-size:8.46666622px;font-family:Ubuntu;-inkscape-font-specification:'Ubuntu, Normal';font-variant-ligatures:normal;font-variant-caps:normal;font-variant-numeric:normal;font-feature-settings:normal;text-align:start;writing-mode:lr-tb;text-anchor:start;stroke-width:0.26458332px"
         id="path3743" />
      <path
         d="m 91.915321,16.550133 q 0.4826,0 0.7112,-0.127 0.237067,-0.127 0.237067,-0.4064 0,-0.287867 -0.2286,-0.4572 -0.2286,-0.169334 -0.753534,-0.381 -0.254,-0.1016 -0.491066,-0.2032 -0.2286,-0.110067 -0.397934,-0.254 -0.169333,-0.143934 -0.270933,-0.347134 -0.1016,-0.2032 -0.1016,-0.499533 0,-0.5842 0.4318,-0.922867 0.4318,-0.347133 1.176867,-0.347133 0.186266,0 0.372533,0.0254 0.186267,0.01693 0.347133,0.0508 0.160867,0.0254 0.2794,0.05927 0.127,0.03387 0.194734,0.05927 l -0.143934,0.677334 q -0.127,-0.06773 -0.397933,-0.135467 -0.270933,-0.0762 -0.651933,-0.0762 -0.3302,0 -0.575734,0.135467 -0.245533,0.127 -0.245533,0.4064 0,0.143933 0.0508,0.254 0.05927,0.110066 0.169333,0.2032 0.118534,0.08467 0.287867,0.160866 0.169333,0.0762 0.4064,0.160867 0.313267,0.118533 0.5588,0.237067 0.245533,0.110066 0.414867,0.262466 0.177799,0.1524 0.270933,0.372534 0.09313,0.211666 0.09313,0.524933 0,0.6096 -0.4572,0.922867 -0.448733,0.313266 -1.286933,0.313266 -0.5842,0 -0.9144,-0.1016 -0.3302,-0.09313 -0.448733,-0.143933 l 0.143933,-0.677333 q 0.135467,0.0508 0.4318,0.1524 0.296333,0.1016 0.7874,0.1016 z"
         style="font-style:normal;font-variant:normal;font-weight:normal;font-stretch:normal;font-size:8.46666622px;font-family:Ubuntu;-inkscape-font-specification:'Ubuntu, Normal';font-variant-ligatures:normal;font-variant-caps:normal;font-variant-numeric:normal;font-feature-settings:normal;text-align:start;writing-mode:lr-tb;text-anchor:start;stroke-width:0.26458332px"
         id="path3745" />
      <path
         d="m 94.203967,14.213333 h 2.091266 v 0.7366 h -2.091266 z"
         style="font-style:normal;font-variant:normal;font-weight:normal;font-stretch:normal;font-size:8.46666622px;font-family:Ubuntu;-inkscape-font-specification:'Ubuntu, Normal';font-variant-ligatures:normal;font-variant-caps:normal;font-variant-numeric:normal;font-feature-settings:normal;text-align:start;writing-mode:lr-tb;text-anchor:start;stroke-width:0.26458332px"
         id="path3747" />
      <path
         d="m 98.215712,16.550133 q 0.4826,0 0.7112,-0.127 0.237067,-0.127 0.237067,-0.4064 0,-0.287867 -0.2286,-0.4572 -0.2286,-0.169334 -0.753534,-0.381 -0.254,-0.1016 -0.491066,-0.2032 -0.2286,-0.110067 -0.397934,-0.254 -0.169333,-0.143934 -0.270933,-0.347134 -0.1016,-0.2032 -0.1016,-0.499533 0,-0.5842 0.4318,-0.922867 0.4318,-0.347133 1.176867,-0.347133 0.186266,0 0.372533,0.0254 0.186267,0.01693 0.347133,0.0508 0.160867,0.0254 0.2794,0.05927 0.127,0.03387 0.194734,0.05927 l -0.143934,0.677334 q -0.127,-0.06773 -0.397933,-0.135467 -0.270933,-0.0762 -0.651933,-0.0762 -0.3302,0 -0.575734,0.135467 -0.245533,0.127 -0.245533,0.4064 0,0.143933 0.0508,0.254 0.05927,0.110066 0.169333,0.2032 0.118534,0.08467 0.287867,0.160866 0.169333,0.0762 0.4064,0.160867 0.313267,0.118533 0.5588,0.237067 0.245533,0.110066 0.414867,0.262466 0.1778,0.1524 0.270933,0.372534 0.09313,0.211666 0.09313,0.524933 0,0.6096 -0.4572,0.922867 -0.448733,0.313266 -1.286933,0.313266 -0.5842,0 -0.9144,-0.1016 -0.3302,-0.09313 -0.448733,-0.143933 l 0.143933,-0.677333 q 0.135467,0.0508 0.4318,0.1524 0.296333,0.1016 0.7874,0.1016 z"
         style="font-style:normal;font-variant:normal;font-weight:normal;font-stretch:normal;font-size:8.46666622px;font-family:Ubuntu;-inkscape-font-specification:'Ubuntu, Normal';font-variant-ligatures:normal;font-variant-caps:normal;font-variant-numeric:normal;font-feature-settings:normal;text-align:start;writing-mode:lr-tb;text-anchor:start;stroke-width:0.26458332px"
         id="path3749" />
      <path
         d="m 100.71602,14.924533 q 0,-0.5842 0.16934,-1.016 0.16933,-0.440267 0.44873,-0.728134 0.2794,-0.287866 0.64347,-0.4318 0.36406,-0.143933 0.74506,-0.143933 0.889,0 1.36314,0.5588 0.47413,0.550333 0.47413,1.684867 0,0.0508 0,0.135466 0,0.0762 -0.008,0.143934 h -3.01413 q 0.0508,0.6858 0.39793,1.0414 0.34714,0.3556 1.08374,0.3556 0.41486,0 0.69426,-0.06773 0.28787,-0.0762 0.4318,-0.143933 l 0.11007,0.6604 q -0.14393,0.0762 -0.508,0.160867 -0.3556,0.08467 -0.8128,0.08467 -0.57573,0 -0.99907,-0.169333 -0.41486,-0.1778 -0.6858,-0.4826 -0.27093,-0.3048 -0.4064,-0.719667 -0.127,-0.423333 -0.127,-0.922866 z m 3.0226,-0.4318 q 0.008,-0.5334 -0.27093,-0.872067 -0.27093,-0.347133 -0.75353,-0.347133 -0.27094,0 -0.4826,0.110066 -0.2032,0.1016 -0.34714,0.270934 -0.14393,0.169333 -0.2286,0.389466 -0.0762,0.220134 -0.1016,0.448734 z"
         style="font-style:normal;font-variant:normal;font-weight:normal;font-stretch:normal;font-size:8.46666622px;font-family:Ubuntu;-inkscape-font-specification:'Ubuntu, Normal';font-variant-ligatures:normal;font-variant-caps:normal;font-variant-numeric:normal;font-feature-settings:normal;text-align:start;writing-mode:lr-tb;text-anchor:start;stroke-width:0.26458332px"
         id="path3751" />
      <path
         d="m 107.31658,12.621599 q 0.1016,0 0.2286,0.01693 0.13547,0.0085 0.26247,0.03387 0.127,0.01693 0.2286,0.04233 0.11007,0.01693 0.16087,0.03387 l -0.13547,0.6858 q -0.0931,-0.03387 -0.31327,-0.0762 -0.21166,-0.0508 -0.55033,-0.0508 -0.22013,0 -0.44027,0.0508 -0.21166,0.04233 -0.2794,0.05927 v 3.699933 h -0.7874 v -4.2164 q 0.2794,-0.1016 0.69427,-0.186266 0.41487,-0.09313 0.93133,-0.09313 z"
         style="font-style:normal;font-variant:normal;font-weight:normal;font-stretch:normal;font-size:8.46666622px;font-family:Ubuntu;-inkscape-font-specification:'Ubuntu, Normal';font-variant-ligatures:normal;font-variant-caps:normal;font-variant-numeric:normal;font-feature-settings:normal;text-align:start;writing-mode:lr-tb;text-anchor:start;stroke-width:0.26458332px"
         id="path3753" />
      <path
         d="m 109.7526,17.117399 h -0.7874 v -4.402666 h 0.7874 z m -0.39793,-5.198533 q -0.21167,0 -0.36407,-0.135467 -0.14393,-0.143933 -0.14393,-0.380999 0,-0.237067 0.14393,-0.372534 0.1524,-0.143933 0.36407,-0.143933 0.21167,0 0.3556,0.143933 0.1524,0.135467 0.1524,0.372534 0,0.237066 -0.1524,0.380999 -0.14393,0.135467 -0.3556,0.135467 z"
         style="font-style:normal;font-variant:normal;font-weight:normal;font-stretch:normal;font-size:8.46666622px;font-family:Ubuntu;-inkscape-font-specification:'Ubuntu, Normal';font-variant-ligatures:normal;font-variant-caps:normal;font-variant-numeric:normal;font-feature-settings:normal;text-align:start;writing-mode:lr-tb;text-anchor:start;stroke-width:0.26458332px"
         id="path3755" />
      <path
         d="m 112.83367,10.547266 q 0.34714,0 0.59267,0.0508 0.254,0.0508 0.3556,0.09313 l -0.14393,0.677333 q -0.1016,-0.0508 -0.28787,-0.09313 -0.18627,-0.0508 -0.4572,-0.0508 -0.55033,0 -0.77047,0.3048 -0.22013,0.296333 -0.22013,0.804333 v 0.381 h 1.69333 v 0.6604 h -1.69333 v 3.742266 h -0.7874 v -4.8006 q 0,-0.846666 0.41487,-1.303866 0.41486,-0.465667 1.30386,-0.465667 z"
         style="font-style:normal;font-variant:normal;font-weight:normal;font-stretch:normal;font-size:8.46666622px;font-family:Ubuntu;-inkscape-font-specification:'Ubuntu, Normal';font-variant-ligatures:normal;font-variant-caps:normal;font-variant-numeric:normal;font-feature-settings:normal;text-align:start;writing-mode:lr-tb;text-anchor:start;stroke-width:0.26458332px"
         id="path3757" />
    </g>
    <path
       style="fill:none;fill-rule:evenodd;stroke:#000000;stroke-width:0.26458332px;stroke-linecap:butt;stroke-linejoin:miter;stroke-opacity:1;marker-start:url(#marker5347)"
       d="m 2.6458333,48.291657 v 3.96875"
       id="path4875"
       inkscape:connector-curvature="0" />
    <path
       style="fill:none;fill-rule:evenodd;stroke:#000000;stroke-width:0.26458332px;stroke-linecap:butt;stroke-linejoin:miter;stroke-opacity:1;marker-start:url(#marker5289)"
       d="m 14.552083,48.291657 v 3.96875"
       id="path4877"
       inkscape:connector-curvature="0" />
    <path
       style="fill:none;fill-rule:evenodd;stroke:#000000;stroke-width:0.26458332px;stroke-linecap:butt;stroke-linejoin:miter;stroke-opacity:1;marker-start:url(#marker5405)"
       d="m 19.84375,48.291658 v 3.96875"
       id="path4879"
       inkscape:connector-curvature="0" />
    <path
       style="fill:none;fill-rule:evenodd;stroke:#000000;stroke-width:0.26458332px;stroke-linecap:butt;stroke-linejoin:miter;stroke-opacity:1;marker-start:url(#Arrow2Mstart)"
       d="m 19.579167,25.802075 v -3.96875"
       id="path4881"
       inkscape:connector-curvature="0" />
    <path
       style="fill:none;fill-rule:evenodd;stroke:#000000;stroke-width:0.26458332px;stroke-linecap:butt;stroke-linejoin:miter;stroke-opacity:1;marker-start:url(#marker5005)"
       d="m 48.947916,25.802075 v -3.96875"
       id="path4883"
       inkscape:connector-curvature="0" />
    <rect
       style="opacity:0.23500001;fill:#000000;fill-opacity:1;fill-rule:evenodd;stroke:none;stroke-width:0.26499999;stroke-linecap:square;stroke-miterlimit:4;stroke-dasharray:none;stroke-dashoffset:0;stroke-opacity:1;paint-order:normal"
       id="rect5485"
       width="6.3499999"
       height="3.1749995"
       x="-0.26458234"
       y="42.735416"
       ry="1.322916" />
    <rect
       style="opacity:0.23500001;fill:#000000;fill-opacity:1;fill-rule:evenodd;stroke:none;stroke-width:0.26499999;stroke-linecap:square;stroke-miterlimit:4;stroke-dasharray:none;stroke-dashoffset:0;stroke-opacity:1;paint-order:normal"
       id="rect5487"
       width="7.6729169"
       height="3.1749995"
       x="10.583334"
       y="42.735416"
       ry="1.3229166" />
    <rect
       style="opacity:0.23500001;fill:#000000;fill-opacity:1;fill-rule:evenodd;stroke:none;stroke-width:0.26499999;stroke-linecap:square;stroke-miterlimit:4;stroke-dasharray:none;stroke-dashoffset:0;stroke-opacity:1;paint-order:normal"
       id="rect5493"
       width="3.4395778"
       height="7.1437507"
       x="47.360416"
       y="27.389582"
       ry="1.3229166" />
    <rect
       style="opacity:0.23500001;fill:#000000;fill-opacity:1;fill-rule:evenodd;stroke:none;stroke-width:0.26499999;stroke-linecap:square;stroke-miterlimit:4;stroke-dasharray:none;stroke-dashoffset:0;stroke-opacity:1;paint-order:normal"
       id="rect5487-6"
       width="6.6145844"
       height="3.1749995"
       x="17.727083"
       y="42.735416"
       ry="1.3229166" />
    <rect
       style="opacity:0.23500001;fill:#000000;fill-opacity:1;fill-rule:evenodd;stroke:none;stroke-width:0.26499999;stroke-linecap:square;stroke-miterlimit:4;stroke-dasharray:none;stroke-dashoffset:0;stroke-opacity:1;paint-order:normal"
       id="rect5487-6-9"
       width="5.5562496"
       height="3.1749992"
       x="17.197918"
       y="27.125"
       ry="1.3229166" />
  </g>
</svg>
