<?xml version="1.0" encoding="UTF-8" standalone="no"?>
<!-- Created with Inkscape (http://www.inkscape.org/) -->

<svg
   width="120mm"
   height="220mm"
   viewBox="0 0 120 220"
   version="1.1"
   id="svg23"
   xmlns="http://www.w3.org/2000/svg"
   xmlns:svg="http://www.w3.org/2000/svg">
  <defs
     id="defs20" />
  <g
     id="layer1"
     transform="translate(-37.82419,19)">
    <path
       style="fill:none;fill-opacity:1;stroke:#000000;stroke-width:11.3386;stroke-miterlimit:4;stroke-dasharray:none;stroke-opacity:1;paint-order:fill markers stroke"
       d=""
       id="path6727"
       transform="scale(0.26458333)" />
    <path
       style="fill:none;fill-opacity:1;stroke:#000000;stroke-width:11.3386;stroke-miterlimit:4;stroke-dasharray:none;stroke-opacity:1;paint-order:fill markers stroke"
       d=""
       id="path6766"
       transform="scale(0.26458333)" />
    <path
       style="fill:none;fill-opacity:1;stroke:#000000;stroke-width:11.3386;stroke-miterlimit:4;stroke-dasharray:none;stroke-opacity:1;paint-order:fill markers stroke"
       d=""
       id="path6805"
       transform="scale(0.26458333)" />
    <path
       style="fill:#c8c8c8;fill-opacity:1;stroke:#000000;stroke-width:4.00879;stroke-miterlimit:4;stroke-dasharray:none;stroke-opacity:1;paint-order:fill markers stroke"
       d=""
       id="path9273"
       transform="scale(0.26458333)" />
    <path
       style="fill:#000000;fill-opacity:0.996595;stroke:none;stroke-width:3.46409;stroke-linecap:butt;stroke-linejoin:miter;stroke-miterlimit:4;stroke-dasharray:none;stroke-opacity:1"
       d="m 57.82419,191 c 1.334356,-2.33762 3.561259,-4.00076 6.666663,-5 l 20.333337,-3 c 8.043844,-0.99904 9.103428,-5.41451 10,-9 h 6 c 0.89071,3.57963 1.95412,8.00032 10,9 l 20.33333,3 c 2.94065,0.98092 5.2884,2.52779 6.66667,5 z"
       id="path3461" />
    <path
       style="fill:#000000;fill-opacity:0.996595;stroke:#000000;stroke-width:0.285456px;stroke-linecap:butt;stroke-linejoin:miter;stroke-opacity:1"
       d="m 100.82419,174 c -1.1013,-24.92534 1.04318,-66.56106 9,-73.33234 -7.90023,3.03527 -15.89573,3.17214 -24.000001,0 8.26931,11.06604 10.062619,49.0876 9,73.33234 h 6.000001"
       id="path9006" />
    <path
       style="fill:none;stroke:#000000;stroke-width:3.62284;stroke-linecap:butt;stroke-linejoin:miter;stroke-miterlimit:4;stroke-dasharray:none;stroke-opacity:1"
       d="m 111.20179,98.37497 c 7.96278,-3.554129 16.09948,-3.384682 24.44445,-13.124937 7.67386,-9.351852 8.21006,-17.510347 12.22223,-26.249996 H 47.86842 c 4.010664,8.740375 4.582095,16.958769 12.222229,26.249996 7.968753,9.46643 16.211606,9.608255 24.444456,13.124937 8.970461,3.55469 17.856835,3.44496 26.666685,0 z"
       id="path9501" />
  </g>
</svg>
