<?xml version="1.0" encoding="UTF-8" standalone="no"?>
<!-- Created with Inkscape (http://www.inkscape.org/) -->

<svg
   width="138.34891mm"
   height="237.02194mm"
   viewBox="0 0 138.3489 237.02194"
   version="1.1"
   id="svg5"
   xmlns="http://www.w3.org/2000/svg"
   xmlns:svg="http://www.w3.org/2000/svg">
  <defs
     id="defs2" />
  <g
     id="layer1"
     transform="translate(-8.0905774,-50.996239)">
    <path
       style="fill:#000000;fill-opacity:0.996595;stroke:#000000;stroke-width:0;stroke-linecap:butt;stroke-linejoin:miter;stroke-miterlimit:4;stroke-dasharray:none;stroke-opacity:1"
       d="M 45.687315,112.89543 11.090578,262.68549 77.432504,285.01818 140.4615,144.79925 Z"
       id="path200" />
    <rect
       style="fill:#000000;fill-opacity:0.996595;stroke:#000000;stroke-width:0.894427;stroke-linecap:round;stroke-linejoin:round;stroke-miterlimit:4;stroke-dasharray:none"
       id="rect3262"
       width="40"
       height="22"
       x="109.31775"
       y="20.419706"
       ry="0.80000687"
       transform="rotate(18.604778)" />
    <path
       style="fill:#000000;fill-opacity:0.996595;stroke:#000000;stroke-width:0.264583px;stroke-linecap:butt;stroke-linejoin:miter;stroke-opacity:1"
       d="m 47.920588,106.26122 94.774182,31.90383 c 2.45385,-17.89883 -2.32937,-33.06478 -16.62784,-44.637583 L 88.157257,80.765932 C 66.777838,80.386657 54.375223,90.01007 47.920588,106.26122 Z"
       id="path5690" />
    <path
       style="fill:none;fill-opacity:0.996595;stroke:#000000;stroke-width:3;stroke-miterlimit:4;stroke-dasharray:none;stroke-opacity:1;paint-order:fill markers stroke"
       id="path93"
       d="m 149.37362,-205.24112 a 40.523079,12.108201 0 0 1 34.98856,-6.12323 40.523079,12.108201 0 0 1 35.22728,5.99979"
       transform="rotate(111.7206)" />
    <path
       style="fill:none;fill-opacity:0.996595;stroke:#000000;stroke-width:3;stroke-miterlimit:4;stroke-dasharray:none;stroke-opacity:1;paint-order:fill markers stroke"
       id="path1201"
       d="m 161.11599,-202.24876 a 27.015385,6.0541005 0 0 1 23.32571,-3.0616 27.015385,6.0541005 0 0 1 23.48482,2.9999"
       transform="rotate(111.7206)" />
    <g
       id="g1326"
       transform="rotate(27.694569,85.85223,125)"
       style="stroke-width:3;stroke-miterlimit:4;stroke-dasharray:none">
      <path
         style="fill:none;fill-opacity:0.996595;stroke:#000000;stroke-width:3;stroke-miterlimit:4;stroke-dasharray:none;stroke-opacity:1;paint-order:fill markers stroke"
         id="path93-3"
         transform="rotate(-85.437397)"
         d="m -149.31001,33.065177 a 40.523079,12.108201 0 0 1 34.98856,-6.123234 40.523079,12.108201 0 0 1 35.227285,5.999791" />
    </g>
    <path
       style="fill:none;fill-opacity:0.996595;stroke:#000000;stroke-width:3;stroke-miterlimit:4;stroke-dasharray:none;stroke-opacity:1;paint-order:fill markers stroke"
       id="path1201-6"
       transform="rotate(-57.742828)"
       d="m -79.679706,79.850768 a 27.015385,6.0541005 0 0 1 23.325718,-3.061601 27.015385,6.0541005 0 0 1 23.484812,2.9999" />
  </g>
</svg>
