<?xml version="1.0" encoding="UTF-8" standalone="no"?>
<!-- Created with Inkscape (http://www.inkscape.org/) -->

<svg
   width="120mm"
   height="220mm"
   viewBox="0 0 120 220"
   version="1.1"
   id="svg23"
   xmlns="http://www.w3.org/2000/svg"
   xmlns:svg="http://www.w3.org/2000/svg">
  <defs
     id="defs20" />
  <g
     id="layer1"
     transform="translate(-37.82419,19)">
    <path
       style="fill:none;fill-opacity:1;stroke:#000000;stroke-width:11.3386;stroke-miterlimit:4;stroke-dasharray:none;stroke-opacity:1;paint-order:fill markers stroke"
       d=""
       id="path6727"
       transform="scale(0.26458333)" />
    <path
       style="fill:none;fill-opacity:1;stroke:#000000;stroke-width:11.3386;stroke-miterlimit:4;stroke-dasharray:none;stroke-opacity:1;paint-order:fill markers stroke"
       d=""
       id="path6766"
       transform="scale(0.26458333)" />
    <path
       style="fill:none;fill-opacity:1;stroke:#000000;stroke-width:11.3386;stroke-miterlimit:4;stroke-dasharray:none;stroke-opacity:1;paint-order:fill markers stroke"
       d=""
       id="path6805"
       transform="scale(0.26458333)" />
    <path
       style="fill:#c8c8c8;fill-opacity:1;stroke:#000000;stroke-width:4.00879;stroke-miterlimit:4;stroke-dasharray:none;stroke-opacity:1;paint-order:fill markers stroke"
       d=""
       id="path9273"
       transform="scale(0.26458333)" />
    <rect
       style="fill:#000000;fill-opacity:0.996595;stroke:none;stroke-width:2.02424;stroke-miterlimit:4;stroke-dasharray:none;paint-order:fill markers stroke"
       id="rect3317"
       width="7.9999981"
       height="84"
       x="93.824188"
       y="101"
       ry="0" />
    <path
       style="fill:#000000;fill-opacity:0.996595;stroke:none;stroke-width:3.46409;stroke-linecap:butt;stroke-linejoin:miter;stroke-miterlimit:4;stroke-dasharray:none;stroke-opacity:1"
       d="m 57.82419,191 c 1.334356,-2.33762 3.561259,-4.00076 6.666663,-5 l 20.333337,-3 c 8.043844,-0.99904 9.103428,-5.41451 10,-9 h 6 c 0.89071,3.57963 1.95412,8.00032 10,9 l 20.33333,3 c 2.94065,0.98092 5.2884,2.52779 6.66667,5 z"
       id="path3461" />
    <path
       style="fill:none;stroke:#000000;stroke-width:3;stroke-linecap:butt;stroke-linejoin:miter;stroke-miterlimit:4;stroke-dasharray:none;stroke-opacity:1"
       d="M 57.82419,11.000003 C 54.260418,18.230969 52.45666,28.030869 52.824189,40.999998 52.425287,79.967138 67.728349,99.59385 97.824188,101 128.38167,99.732379 143.09376,79.385713 142.82419,41.000004 c 0.37295,-13.023388 -1.45395,-22.78587 -5,-30.000001 z"
       id="path7720" />
  </g>
</svg>
