<?xml version="1.0" encoding="UTF-8" standalone="no"?>
<!-- Created with Inkscape (http://www.inkscape.org/) -->

<svg
   width="120mm"
   height="220mm"
   viewBox="0 0 120 220"
   version="1.1"
   id="svg23"
   xmlns="http://www.w3.org/2000/svg"
   xmlns:svg="http://www.w3.org/2000/svg">
  <defs
     id="defs20" />
  <g
     id="layer1"
     transform="translate(-37.82419,19)">
    <path
       style="fill:none;fill-opacity:1;stroke:#000000;stroke-width:11.3386;stroke-miterlimit:4;stroke-dasharray:none;stroke-opacity:1;paint-order:fill markers stroke"
       d=""
       id="path6727"
       transform="scale(0.26458333)" />
    <path
       style="fill:none;fill-opacity:1;stroke:#000000;stroke-width:11.3386;stroke-miterlimit:4;stroke-dasharray:none;stroke-opacity:1;paint-order:fill markers stroke"
       d=""
       id="path6766"
       transform="scale(0.26458333)" />
    <path
       style="fill:none;fill-opacity:1;stroke:#000000;stroke-width:11.3386;stroke-miterlimit:4;stroke-dasharray:none;stroke-opacity:1;paint-order:fill markers stroke"
       d=""
       id="path6805"
       transform="scale(0.26458333)" />
    <path
       style="fill:#c8c8c8;fill-opacity:1;stroke:#000000;stroke-width:4.00879;stroke-miterlimit:4;stroke-dasharray:none;stroke-opacity:1;paint-order:fill markers stroke"
       d=""
       id="path9273"
       transform="scale(0.26458333)" />
    <rect
       style="fill:#000000;fill-opacity:0.996595;stroke:none;stroke-width:2;stroke-miterlimit:4;stroke-dasharray:none;paint-order:fill markers stroke"
       id="rect3317"
       width="6.0000019"
       height="67"
       x="94.824188"
       y="116"
       ry="0" />
    <path
       style="fill:#000000;stroke:none;stroke-width:3;stroke-linecap:butt;stroke-linejoin:miter;stroke-opacity:1;fill-opacity:0.99659503;stroke-miterlimit:4;stroke-dasharray:none"
       d="m 67.82419,191 c 1.000767,-2.33762 2.670944,-4.00075 4.999998,-5 l 15.000002,-2 c 6,-1 4.691589,0.5379 6.999999,-3 h 6.000001 c 2.34896,3.5638 1,2 7,3 l 15,2 c 2.20549,0.98093 3.9663,2.52779 5,5 z"
       id="path3461" />
    <path
       style="fill:none;fill-opacity:1;stroke:#000000;stroke-width:2.9;stroke-miterlimit:4;stroke-dasharray:none;stroke-opacity:1;paint-order:fill markers stroke"
       id="path5085"
       d="M 127.82177,-5.5229645 A 30.000002,120 0 0 1 112.93909,99.656339 30.000002,120 0 0 1 82.724653,99.692164 30.000002,120 0 0 1 67.826382,-5.4518266" />
    <path
       style="fill:none;stroke:#000000;stroke-width:3;stroke-linecap:butt;stroke-linejoin:miter;stroke-miterlimit:4;stroke-dasharray:none;stroke-opacity:1"
       d="m 66.82419,-4 62,4.3e-6"
       id="path5450" />
  </g>
</svg>
