<?xml version="1.0" encoding="UTF-8" standalone="no"?>
<!-- Created with Inkscape (http://www.inkscape.org/) -->

<svg
   width="102mm"
   height="237.00002mm"
   viewBox="0 0 102 237.00002"
   version="1.1"
   id="svg5"
   xml:space="preserve"
   xmlns="http://www.w3.org/2000/svg"
   xmlns:svg="http://www.w3.org/2000/svg"><defs
     id="defs2" /><g
     id="layer1"
     transform="translate(0.9999987,1.0000095)"><path
       style="fill:#000000;stroke-width:3;stroke:#000000;stroke-opacity:1;stroke-dasharray:none;stroke-linecap:round"
       d="m 18.520833,228.86458 h 62.177082 v 0"
       id="path507" /><path
       style="fill:none;stroke:#000000;stroke-width:3;stroke-linecap:round;stroke-dasharray:none;stroke-opacity:1"
       d="m 29.104167,109.80208 c -45.155412,24.03263 -19.029885,74.39329 -10.583334,119.0625"
       id="path1186" /><path
       style="fill:none;stroke:#000000;stroke-width:3;stroke-linecap:round;stroke-dasharray:none;stroke-opacity:1"
       d="m 69.999998,109.80208 c 40.718912,20.01363 19.153699,72.53324 10.697917,119.0625"
       id="path1188" /><path
       style="display:inline;fill:none;stroke:#000000;stroke-width:3;stroke-dasharray:none;stroke-opacity:1"
       d="m 36.718749,69.791676 c -0.79375,16.404167 0.427084,23.8125 -6.614584,41.010414"
       id="path2026"
       transform="translate(-0.9999987,-1.0000095)" /><path
       style="fill:none;stroke:#000000;stroke-width:3;stroke-linecap:round;stroke-linejoin:round;stroke-dasharray:none;stroke-opacity:1"
       d="m 34.395833,52.916667 c 9.143147,-3.318098 19.006381,-3.732396 29.897915,-2e-6 l 2e-6,15.875002 c -9.865124,-1.983203 -19.854025,-1.532307 -29.897917,0 z"
       id="path2409" /><path
       style="fill:none;stroke:#000000;stroke-width:3;stroke-linecap:round;stroke-linejoin:round;stroke-dasharray:none;stroke-opacity:1"
       id="path2465"
       d="m 63.681507,76.950434 a 14.521474,14.639239 0 0 1 15.76299,3.823762 14.521474,14.639239 0 0 1 2.424976,16.160543 14.521474,14.639239 0 0 1 -13.935831,8.352801" /><path
       style="fill:none;stroke:#000000;stroke-width:3;stroke-linecap:round;stroke-linejoin:round;stroke-dasharray:none;stroke-opacity:1"
       id="path2473"
       d="m 68.792036,97.843331 a 7.0100751,7.2601347 0 0 1 -6.46382,-7.751539 7.0100751,7.2601347 0 0 1 7.452712,-6.73239 7.0100751,7.2601347 0 0 1 6.537039,7.685397 7.0100751,7.2601347 0 0 1 -7.38849,6.807895" /><path
       style="fill:none;stroke:#000000;stroke-width:3;stroke-linecap:round;stroke-linejoin:round;stroke-dasharray:none;stroke-opacity:1"
       d="m 67.999997,105.30416 2.000002,4.49792"
       id="path2477" /><path
       style="fill:none;stroke:#000000;stroke-width:3;stroke-linecap:round;stroke-linejoin:round;stroke-dasharray:none;stroke-opacity:1"
       d="m 62.706248,68.527082 1.058334,8.466666"
       id="path2479" /><path
       style="fill:none;stroke:#000000;stroke-width:1.2;stroke-linecap:round;stroke-linejoin:round;stroke-dasharray:none;stroke-opacity:1"
       d="m 39.158333,54.239583 0,10.847917"
       id="path2481" /><path
       style="fill:none;stroke:#000000;stroke-width:1.2;stroke-linecap:round;stroke-linejoin:round;stroke-dasharray:none;stroke-opacity:1"
       d="m 44.979167,53.445833 0,11.1125"
       id="path2483" /><path
       style="fill:none;stroke:#000000;stroke-width:1.2;stroke-linecap:round;stroke-linejoin:round;stroke-dasharray:none;stroke-opacity:1"
       d="m 49.999999,52.916665 0,11.377085"
       id="path2485" /><path
       style="fill:none;stroke:#000000;stroke-width:1.2;stroke-linecap:round;stroke-linejoin:round;stroke-dasharray:none;stroke-opacity:1"
       d="m 54.76875,53.445833 0,11.1125"
       id="path2487" /><path
       style="fill:none;stroke:#000000;stroke-width:1.2;stroke-linecap:round;stroke-linejoin:round;stroke-dasharray:none;stroke-opacity:1"
       d="m 59.531249,54.239582 10e-7,10.847918"
       id="path2489" /><text
       xml:space="preserve"
       style="font-size:19.7556px;fill:none;stroke:#000000;stroke-width:1;stroke-linecap:round;stroke-linejoin:round;stroke-dasharray:none;stroke-opacity:1"
       x="42.333332"
       y="142.87498"
       id="text2599"><tspan
         id="tspan2597"
         style="stroke-width:1"
         x="42.333332"
         y="142.87498" /></text><path
       style="fill:none;stroke:#000000;stroke-width:1.2;stroke-linecap:round;stroke-linejoin:round;stroke-dasharray:none;stroke-opacity:1"
       d="M 24.077082,219.60416 H 74.347914"
       id="path10566" /><path
       style="fill:none;stroke:#000000;stroke-width:1.2;stroke-linecap:round;stroke-linejoin:round;stroke-dasharray:none;stroke-opacity:1"
       d="m 24.077082,219.60416 c 0.1415,-34.05391 -33.0729154,-80.69791 24.864583,-93.92708 56.617205,13.11207 24.717143,59.67787 25.406251,93.92709"
       id="path10568" /><text
       xml:space="preserve"
       style="font-size:16.9333px;font-family:Ubuntu;-inkscape-font-specification:Ubuntu;text-align:center;text-anchor:middle;fill:#000000;fill-opacity:1;stroke:none;stroke-width:1.2;stroke-linecap:round;stroke-linejoin:round;stroke-dasharray:none;stroke-opacity:1"
       x="50"
       y="211.66667"
       id="text11350"><tspan
         id="tspan11348"
         style="font-size:16.9333px;fill:#000000;fill-opacity:1;stroke:none;stroke-width:1.2"
         x="50"
         y="211.66667">SIRUP</tspan></text><text
       xml:space="preserve"
       style="font-size:11.2889px;font-family:Ubuntu;-inkscape-font-specification:Ubuntu;text-align:center;text-anchor:middle;fill:#000000;fill-opacity:1;stroke:none;stroke-width:1.2;stroke-linecap:round;stroke-linejoin:round;stroke-dasharray:none;stroke-opacity:1"
       x="48.947918"
       y="164.04167"
       id="text12193"><tspan
         id="tspan12191"
         style="font-size:11.2889px;stroke-width:1.2"
         x="48.947918"
         y="164.04167">MANGO</tspan></text></g></svg>
