<?xml version="1.0" encoding="UTF-8" standalone="no"?>
<!-- Created with Inkscape (http://www.inkscape.org/) -->

<svg
   width="138.34891mm"
   height="237.02194mm"
   viewBox="0 0 138.3489 237.02194"
   version="1.1"
   id="svg5"
   xmlns="http://www.w3.org/2000/svg"
   xmlns:svg="http://www.w3.org/2000/svg">
  <defs
     id="defs2" />
  <g
     id="layer1"
     transform="translate(-8.0905774,-50.996239)">
    <g
       id="g226"
       transform="matrix(1,0,0,0.81321019,-70.481027,-81.730882)">
      <path
         style="fill:#000002;fill-opacity:1;stroke:#000000;stroke-width:2;stroke-miterlimit:4;stroke-dasharray:none;stroke-opacity:1;paint-order:fill markers stroke"
         id="path3912"
         d="m 152.48103,383.33371 a 13.98204,19.472342 0 0 1 11.70402,20.79077 13.98204,19.472342 0 0 1 -13.94905,17.90407 13.98204,19.472342 0 0 1 -13.92617,-17.93856 13.98204,19.472342 0 0 1 11.73053,-20.76177" />
      <path
         style="fill:#000002;fill-opacity:1;stroke:#000000;stroke-width:2;stroke-linecap:butt;stroke-linejoin:miter;stroke-miterlimit:4;stroke-dasharray:none;stroke-opacity:1"
         d="m 147.26638,383.99623 1e-5,-204 h 6 v 204"
         id="path4423" />
      <path
         style="fill:none;fill-opacity:1;stroke:#000000;stroke-width:4.4;stroke-miterlimit:4;stroke-dasharray:none;stroke-opacity:1;paint-order:fill markers stroke"
         id="path5570"
         d="m 174.39089,206.8582 a 50.078491,14.308141 0 0 1 21.27632,16.90192 50.078491,14.308141 0 0 1 -53.30024,9.52454 50.078491,14.308141 0 0 1 -43.879488,-12.86282 50.078491,14.308141 0 0 1 34.692138,-14.97931" />
      <path
         style="fill:none;fill-opacity:1;stroke:#000000;stroke-width:0.0662914;stroke-miterlimit:4;stroke-dasharray:none;stroke-opacity:1;paint-order:fill markers stroke"
         d="m 149.99756,233.96661 v -2.03751 h 0.2631 0.26309 v 2.03751 2.03751 h -0.26309 -0.2631 z"
         id="path7637" />
      <path
         style="fill:none;fill-opacity:1;stroke:#000000;stroke-width:0.0662914;stroke-miterlimit:4;stroke-dasharray:none;stroke-opacity:1;paint-order:fill markers stroke"
         d="m 150.03264,233.96661 v -2.00243 h 0.22802 0.22801 v 2.00243 2.00244 h -0.22801 -0.22802 z"
         id="path7676" />
      <path
         style="fill:none;fill-opacity:1;stroke:#000000;stroke-width:0.0662914;stroke-miterlimit:4;stroke-dasharray:none;stroke-opacity:1;paint-order:fill markers stroke"
         d="m 150.06772,233.96661 v -1.96735 h 0.19294 0.19293 v 1.96735 1.96736 h -0.19293 -0.19294 z"
         id="path7715" />
      <path
         style="fill:none;fill-opacity:1;stroke:#000000;stroke-width:0.0662914;stroke-miterlimit:4;stroke-dasharray:none;stroke-opacity:1;paint-order:fill markers stroke"
         d="m 150.1028,233.96661 v -1.93227 h 0.15786 0.15785 v 1.93227 1.93228 h -0.15785 -0.15786 z"
         id="path7754" />
      <path
         style="fill:none;fill-opacity:1;stroke:#000000;stroke-width:0.0662914;stroke-miterlimit:4;stroke-dasharray:none;stroke-opacity:1;paint-order:fill markers stroke"
         d="m 150.13788,233.96661 v -1.8972 h 0.12278 0.12277 v 1.8972 1.8972 h -0.12277 -0.12278 z"
         id="path7793" />
      <path
         style="fill:none;fill-opacity:1;stroke:#000000;stroke-width:0.0662914;stroke-miterlimit:4;stroke-dasharray:none;stroke-opacity:1;paint-order:fill markers stroke"
         d="m 150.17296,233.96661 v -1.86211 h 0.0877 0.0877 v 1.86211 1.86212 h -0.0877 -0.0877 z"
         id="path7832" />
      <path
         style="fill:none;fill-opacity:1;stroke:#000000;stroke-width:0.0662914;stroke-miterlimit:4;stroke-dasharray:none;stroke-opacity:1;paint-order:fill markers stroke"
         d="m 150.20804,233.96661 v -1.82704 h 0.0526 0.0526 v 1.82704 1.82704 h -0.0526 -0.0526 z"
         id="path7871" />
      <path
         style="fill:none;fill-opacity:1;stroke:#000000;stroke-width:0.0662914;stroke-miterlimit:4;stroke-dasharray:none;stroke-opacity:1;paint-order:fill markers stroke"
         d="m 146.26748,237.27827 v -1.28331 h -3.14542 -3.14543 v -0.99683 -0.99683 h 3.14543 3.14542 v -3.27113 -3.27113 h 3.99903 3.99901 v 3.27113 3.27113 h 1.59611 1.59609 v 0.99683 0.99683 h -1.59609 -1.59611 v 1.28331 1.28331 h -3.99901 -3.99903 z m 3.99465,-5.1873 -0.0541,-0.002 -0.002,-1.8312 -0.002,-1.83121 -10e-4,1.83435 -0.001,1.83435 0.057,-0.001 0.057,-0.001 z"
         id="path7910" />
      <path
         style="fill:none;fill-opacity:1;stroke:#000000;stroke-width:0.0662914;stroke-miterlimit:4;stroke-dasharray:none;stroke-opacity:1;paint-order:fill markers stroke"
         d="m 150.24312,233.96661 v -1.79196 h 0.0175 0.0175 v 1.79196 1.79196 h -0.0175 -0.0175 z"
         id="path7912" />
      <path
         style="fill:none;fill-opacity:1;stroke:#000000;stroke-width:0.0662914;stroke-miterlimit:4;stroke-dasharray:none;stroke-opacity:1;paint-order:fill markers stroke"
         d="m 146.23825,237.29289 v -1.2687 h -3.13081 -3.13081 v -1.02606 -1.02607 h 3.13081 3.13081 v -3.25651 -3.25651 h 4.02826 4.02825 v 3.25651 3.25651 h 1.58148 1.58148 v 1.02607 1.02606 h -1.58148 -1.58148 v 1.2687 1.26869 h -4.02825 -4.02826 z"
         id="path7951" />
      <path
         style="fill:none;fill-opacity:1;stroke:#000000;stroke-width:0.0662914;stroke-miterlimit:4;stroke-dasharray:none;stroke-opacity:1;paint-order:fill markers stroke"
         d="m 146.23825,237.29289 v -1.2687 h -3.13081 -3.13081 v -1.02606 -1.02607 h 3.13081 3.13081 v -3.25651 -3.25651 h 4.02826 4.02825 v 3.25651 3.25651 h 1.58148 1.58148 v 1.02607 1.02606 h -1.58148 -1.58148 v 1.2687 1.26869 h -4.02825 -4.02826 z"
         id="path7990" />
      <path
         style="fill:#000002;fill-opacity:1;stroke:none;stroke-width:0.378569px;stroke-linecap:butt;stroke-linejoin:miter;stroke-opacity:1"
         d="m 162.05236,206.19424 19.21403,11.50616 1.51931,-19.9737 z"
         id="path11149" />
      <g
         id="g15890"
         transform="matrix(1,0,0,0.94871795,55.266387,207.56033)">
        <path
           style="fill:none;stroke:#000000;stroke-width:3;stroke-linecap:square;stroke-linejoin:round;stroke-miterlimit:4;stroke-dasharray:none;stroke-opacity:1"
           d="M 44.999999,50.000009 50,245 h 85 l 5,-195 v 10e-7"
           id="path70" />
        <path
           style="fill:none;stroke:#000000;stroke-width:3;stroke-linecap:square;stroke-linejoin:round;stroke-miterlimit:4;stroke-dasharray:none;stroke-opacity:1"
           d="m 50,227 c 0.01615,5.3098 6.607671,8.00633 19.999999,8 H 115 c 14.05961,0.0633 19.79322,-2.94788 20,-8 v 0"
           id="path3229" />
        <path
           style="fill:none;stroke:#000000;stroke-width:3;stroke-linecap:butt;stroke-linejoin:miter;stroke-miterlimit:4;stroke-dasharray:none;stroke-opacity:1"
           d="M 44.999999,50 H 140"
           id="path15399" />
      </g>
    </g>
  </g>
</svg>
